<svg width="301" height="301" viewBox="0 0 301 301" fill="none" xmlns="http://www.w3.org/2000/svg">
<g clip-path="url(#clip0_7_3533)">
<path d="M151.46 209.449C192.03 209.449 224.919 176.56 224.919 135.989C224.919 95.4184 192.03 62.5294 151.46 62.5294C110.889 62.5294 78 95.4184 78 135.989C78 176.56 110.889 209.449 151.46 209.449Z" fill="#F2E3D8"/>
<path d="M154.468 74.0492L88.4953 92.1417C84.1482 93.3337 81.5891 97.827 82.7811 102.174L105.289 184.248C106.053 187.034 108.936 188.675 111.721 187.912L180.52 169.044C183.305 168.28 184.947 165.398 184.183 162.612L160.9 77.7124C160.136 74.9269 157.254 73.2853 154.468 74.0492ZM180.158 163.716C180.312 164.278 179.978 164.865 179.416 165.019L174.699 166.312C174.681 165.963 174.62 165.615 174.523 165.261L153.668 89.2166C152.904 86.4288 150.024 84.7889 147.237 85.5534L91.2139 100.917C90.819 100.927 90.4403 100.918 90.0815 100.891C87.4833 100.689 87.0493 96.8975 89.5542 96.1787C89.5692 96.1745 89.5843 96.1703 89.5993 96.1661L151.99 79.0561C154.533 78.3583 157.16 79.8549 157.858 82.3978L180.158 163.716Z" fill="#CA7A49"/>
<path d="M157.858 82.399L180.158 163.717C180.312 164.279 179.978 164.865 179.416 165.019L174.699 166.313C174.681 165.963 174.62 165.616 174.523 165.262L153.668 89.2172C152.904 86.4294 150.024 84.7895 147.237 85.5541L91.2139 100.918C90.819 100.928 90.4403 100.919 90.0815 100.891C87.4833 100.69 87.0493 96.8981 89.5542 96.1793C89.5692 96.1751 89.5843 96.1709 89.5993 96.1667L151.99 79.0567C154.533 78.3595 157.16 79.8555 157.858 82.399Z" fill="white"/>
<path d="M114.643 129.982L108.488 126.476L104.983 132.63L95.048 96.4039L104.708 93.7545L114.643 129.982Z" fill="#725849"/>
<path d="M133.028 62.9309C111.695 18.3203 57.0962 61.9743 99.9465 83.2454C107.413 86.9513 109.624 88.8247 112.832 98.9907C113.611 101.458 114.05 104.226 116.226 103.394C119.605 102.102 114.241 90.3737 112.141 87.3896C106.387 79.2138 95.2804 79.203 90.087 70.2295C86.1294 63.3914 89.3128 54.6564 95.6795 50.3828C104.459 44.4904 120.208 47.2223 128.599 62.5348C138.552 80.6989 131.083 98.3724 136.36 97.8529C137.488 97.7415 138.027 96.8097 138.059 95.7826C138.413 84.6884 137.9 73.1179 133.028 62.9309Z" fill="#725849"/>
<path d="M183.932 161.042C181.884 153.508 179.822 145.977 177.768 138.445C177.19 136.327 176.612 134.208 176.034 132.09C175.475 130.039 175.009 127.919 174.241 125.935C174.233 125.914 174.216 125.902 174.197 125.895C171.483 115.684 168.736 105.481 165.955 95.2884C164.562 90.1822 163.164 85.0767 161.751 79.9759C161.292 78.3144 160.816 76.4909 159.59 75.2087C158.278 73.8361 156.442 73.7067 154.667 74.0336C151.917 74.5398 149.199 75.4043 146.493 76.1032C143.623 76.8443 140.742 77.5517 137.891 78.3632C137.781 77.5438 137.658 76.7257 137.504 75.9106C137.057 73.5532 136.345 71.2535 135.678 68.9443C135.28 67.5711 134.725 66.2702 134.2 64.9464C133.145 62.291 131.64 59.8414 130.123 57.4196C129.631 56.634 129.136 55.8483 128.579 55.1073C127.56 53.7516 126.309 52.621 125.181 51.3713C124.073 50.1444 122.78 49.0445 121.464 48.0488C119.185 46.3247 116.653 44.9347 113.962 43.9691C112.333 43.3845 110.612 43.089 108.867 43.0173C105.788 42.8915 102.64 43.4622 99.8093 44.3706C93.1866 46.4957 86.85 51.4706 84.6395 58.2672C83.4529 61.9159 83.6173 65.977 84.8471 69.5914C87.3972 77.0881 95.0276 80.4292 101.39 84.0677C103.023 85.002 104.678 85.9556 106.151 87.1385C100.682 88.5809 95.2028 90.0052 89.7577 91.5379C87.6139 92.1411 85.5443 92.9237 84.1296 94.7285C83.2741 95.8193 82.6197 97.1251 82.332 98.485C82.0117 99.9996 82.4993 101.144 82.8377 102.583C83.6455 106.017 84.5166 109.435 85.4329 112.841C85.6623 113.692 85.894 114.543 86.1282 115.393C86.8307 117.94 87.5549 120.483 88.2984 123.018C88.91 125.104 89.4518 127.267 90.1754 129.335C91.4041 134.585 92.8194 139.795 94.2474 144.994C95.7506 150.466 97.2754 155.942 98.9707 161.358C98.9839 161.401 99.0104 161.425 99.0399 161.439C99.1242 161.737 99.2079 162.034 99.2819 162.326C99.5167 163.257 99.7539 164.188 99.9965 165.118C100.56 167.277 101.143 169.431 101.725 171.586C102.3 173.712 102.92 175.826 103.52 177.945C104.181 180.28 104.558 182.838 105.44 185.119C106.13 186.903 108.231 188.163 110.047 188.41C110.374 188.455 110.704 188.47 111.032 188.454C112.94 188.358 114.849 187.559 116.665 187.021C118.798 186.39 120.934 185.769 123.068 185.142C131.495 182.663 139.956 180.306 148.446 178.054C153.455 176.725 158.512 175.515 163.494 174.126C165.576 173.546 167.702 172.925 169.796 172.317C171.904 171.694 174.11 171.254 176.258 170.71C178.278 170.198 180.455 169.548 182.223 168.407C183.275 167.728 184.12 166.792 184.412 165.548C184.763 164.05 184.323 162.482 183.932 161.042ZM174.764 166.238C174.699 163.607 173.528 160.875 172.74 158.447C171.687 155.204 170.86 151.886 169.969 148.596C168.211 142.101 166.656 135.538 164.698 129.1C162.535 121.146 160.37 113.193 158.206 105.239C157.109 101.207 156.023 97.1708 154.914 93.1422C154.232 90.668 153.504 86.4685 150.654 85.5053C148.898 84.9123 146.648 85.5811 144.892 85.9201C142.79 86.3258 140.722 86.8598 138.701 87.5647C138.826 87.5214 138.614 86.0019 138.602 85.8707C138.516 84.8756 138.42 83.8823 138.331 82.8872C138.335 82.9329 139.399 82.5212 139.479 82.4947C140.013 82.3153 140.544 82.1226 141.088 81.9739C141.553 81.8469 142.017 81.7205 142.481 81.5935C142.872 81.4869 143.395 81.2341 143.797 81.2341C144.575 81.0216 145.354 80.9409 146.14 80.735C147.035 80.5009 147.929 80.2667 148.825 80.0373C150.735 79.5485 152.819 78.8339 154.796 79.3571C156.835 79.8964 157.549 81.5863 158.056 83.4458C160.188 91.2724 162.274 99.1117 164.383 106.944C165.054 109.437 165.725 111.929 166.396 114.421C167.725 119.358 169.061 124.284 170.411 129.23C171.296 132.478 172.181 135.725 173.067 138.971C174.837 145.466 176.608 151.96 178.379 158.454C178.62 159.34 178.861 160.226 179.103 161.111C179.232 161.584 179.361 162.056 179.489 162.528C179.634 163.057 180.032 163.726 179.828 164.28C179.616 164.853 178.964 164.989 178.452 165.164C178.011 165.314 177.565 165.453 177.119 165.589C176.34 165.825 175.553 166.036 174.764 166.238ZM100.443 82.7385C97.6132 81.0968 94.7338 79.5154 92.0007 77.7172C87.9276 75.0371 85.2583 71.3607 84.6069 66.4556C84.1181 62.7732 84.43 59.0889 86.2197 55.7785C88.0739 52.3483 91.0688 49.614 94.375 47.607C97.2797 45.8437 100.571 44.2869 103.956 43.7807C105.803 43.5043 107.712 43.6639 109.562 43.7758C113.686 44.0257 116.978 45.5987 120.321 47.914C122.716 49.5737 124.878 51.5633 126.764 53.7835C127.784 54.9839 128.725 56.2511 129.583 57.5713C133.357 63.3758 135.791 70.1531 137.033 76.9472C137.708 80.6417 137.998 84.3988 138.084 88.1511C138.108 89.1799 138.338 95.5858 136.866 97.1148C136.541 97.452 136.133 97.5519 135.622 97.3045C134.333 96.6796 134.692 93.7599 134.506 92.6625C134.218 90.9678 134.54 89.2798 134.437 87.5804C134.329 85.8009 134.191 84.0238 134.109 82.243C134.038 80.7079 133.969 79.1698 133.745 77.6474C133.417 75.4115 132.854 73.1841 132.213 71.0194C131.159 67.4615 129.73 63.9753 127.655 60.8835C125.653 57.8982 123.228 55.0146 120.428 52.7456C116.998 49.9662 112.886 47.967 108.498 47.3234C104.691 46.7654 100.706 47.2608 97.2778 49.0572C92.625 51.4947 89.7715 56.0892 88.5386 61.1122C88.2033 62.4794 87.9535 63.5503 88.0697 64.9753C88.181 66.343 88.479 67.6987 88.9486 68.9882C91.5035 75.9991 99.5456 78.3048 105.339 81.7638C108.266 83.5115 111.039 85.89 112.917 88.7543C114.098 90.5579 114.736 92.3928 115.512 94.3794C116.334 96.4821 117.312 98.6301 117.242 100.938C117.225 101.497 117.137 102.077 116.821 102.539C116.506 103.001 115.913 103.311 115.376 103.152C114.425 102.87 114.149 101.591 113.903 100.777C113.563 99.6577 113.312 98.5127 112.908 97.414C112.331 95.8452 111.662 94.3119 110.975 92.7895C110.029 90.6963 108.763 88.6893 107.054 87.1806C105.06 85.4204 102.743 84.0737 100.443 82.7385ZM113.874 89.6212C120.528 87.9951 127.096 86.0031 133.742 84.3368C133.808 85.8478 133.852 87.3594 133.902 88.8711C133.886 88.8723 133.872 88.8692 133.855 88.8735C127.876 90.4218 121.773 91.8714 115.955 93.967C115.355 92.4608 114.717 91.0214 113.874 89.6212ZM109.858 84.624C107.496 82.3707 104.707 80.6772 101.807 79.2108C101.217 78.9122 100.705 78.5311 100.116 78.2446C99.4667 77.9285 98.8141 77.6191 98.1682 77.2952C96.8769 76.6493 95.6109 75.9431 94.4677 75.0564C93.5942 74.3791 92.7815 73.6236 92.0416 72.8025C90.6414 71.2487 89.4199 69.5878 88.9221 67.5121C88.6855 66.5242 88.6139 65.5008 88.5934 64.4877C88.5398 61.8063 89.2484 59.1401 90.5059 56.7796C91.8069 54.3379 93.6929 52.2129 95.9595 50.6272C98.3494 48.9555 101.151 47.9092 104.055 47.6226C107.424 47.2903 110.814 47.9874 113.891 49.3588C117.979 51.1798 121.504 54.0989 124.516 57.3702C129.58 62.8689 132.079 70.0929 133.146 77.3807C133.256 78.1302 133.345 78.8803 133.421 79.6298C133.394 79.6286 133.367 79.6274 133.337 79.6358C129.557 80.7085 125.772 81.7626 121.979 82.7878C118.307 83.7805 114.593 84.6559 110.946 85.7352C110.594 85.3548 110.233 84.9821 109.858 84.624ZM122.121 83.1755C125.908 82.178 129.689 81.16 133.463 80.1144C133.581 81.3846 133.666 82.6554 133.725 83.9268C127.05 85.604 120.278 87.2192 113.757 89.4327C113.665 89.2834 113.576 89.1341 113.479 88.986C112.78 87.9169 111.994 86.9073 111.141 85.958C114.827 85.1621 118.475 84.1357 122.121 83.1755ZM95.2094 96.5333C95.9119 96.4238 96.6126 96.2137 97.2953 96.0306C98.117 95.8103 98.9357 95.5816 99.7563 95.3564C100.577 95.1319 101.397 94.9073 102.217 94.6822C103.008 94.4654 103.87 94.3047 104.642 94.0079C104.892 95.5244 105.386 97.0239 105.787 98.5049C106.186 99.9768 106.585 101.449 106.984 102.921C107.799 105.923 108.613 108.925 109.427 111.928C111.022 117.809 112.619 123.688 114.214 129.568C114.041 129.446 113.852 129.341 113.673 129.234C113.396 129.07 113.12 128.906 112.844 128.74C112.327 128.431 111.812 128.119 111.297 127.805C110.761 127.477 110.196 127.164 109.68 126.807C109.542 126.71 108.308 125.916 108.284 125.968C107.785 127.016 107.122 127.968 106.586 128.994C106.057 130.007 105.54 131.027 105.013 132.041C103.478 126.172 101.91 120.312 100.304 114.461C98.6606 108.476 97.0671 102.459 95.2094 96.5333ZM105.469 95.7561C105.424 95.5942 104.76 93.5901 104.797 93.5865C103.95 93.654 103.1 94.0302 102.284 94.256C101.467 94.4823 100.649 94.7087 99.8315 94.935C99.014 95.1614 98.1959 95.3859 97.379 95.6141C97.1653 95.6737 94.8668 96.3714 94.8548 96.3359C95.1775 97.2804 95.4345 98.2394 95.697 99.2074C95.7175 99.282 95.7391 99.3561 95.7596 99.4307C94.6712 99.7528 93.5966 100.098 92.4769 100.302C91.2289 100.53 89.5512 100.856 88.5308 99.8756C87.1191 98.5187 88.7951 96.8379 90.0845 96.3172C91.2578 95.8428 92.5419 95.5828 93.7591 95.2462C98.9953 93.7978 104.233 92.3554 109.471 90.9124C109.957 91.7035 110.388 92.5324 110.773 93.3837C111.031 93.9531 111.27 94.5299 111.499 95.1102C109.572 95.6062 107.611 96.1023 105.746 96.8024C105.655 96.4532 105.566 96.1035 105.469 95.7561ZM167.458 172.518C166.606 172.74 165.756 172.97 164.911 173.22C163.246 173.712 161.596 174.155 159.914 174.589C158.194 175.033 156.471 175.468 154.747 175.897C152.19 176.534 149.643 177.212 147.101 177.904C144.386 178.644 141.677 179.412 138.958 180.137C130.892 182.329 122.845 184.582 114.836 186.972C112.894 187.552 110.86 188.334 108.865 187.53C105.159 186.037 104.948 181.448 104.018 178.134C103.433 176.044 102.86 173.95 102.261 171.864C101.677 169.831 101.084 167.801 100.505 165.766C100.223 164.774 99.9399 163.783 99.6582 162.79C99.4047 161.895 99.2157 160.915 98.884 160.029C97.4518 155.098 95.9944 150.175 94.6309 145.224C94.4117 144.428 94.1956 143.632 93.9807 142.836C93.289 140.266 92.6172 137.691 91.9447 135.116C91.3 132.647 90.8184 130.113 90.0785 127.672C89.6294 126.189 89.1274 124.722 88.6915 123.234C87.9396 120.664 87.2094 118.089 86.5002 115.508C85.7869 112.911 85.0958 110.308 84.4155 107.703C84.0742 106.395 83.5986 105.052 83.3837 103.718C83.2085 102.633 82.822 101.612 82.6354 100.52C82.279 98.438 83.3458 96.0632 84.7695 94.5431C86.4954 92.6998 89.007 92.1989 91.3469 91.5746C96.3785 90.2322 101.406 88.8705 106.428 87.4913C106.466 87.4804 106.493 87.4618 106.514 87.4401C106.669 87.5719 106.834 87.6911 106.984 87.8296C107.858 88.6381 108.595 89.5561 109.235 90.541C105.977 91.4482 102.72 92.3554 99.4619 93.2633C97.8172 93.7214 96.172 94.1771 94.5267 94.6334C92.2614 95.2619 88.2972 95.4028 87.6717 98.2701C87.5561 98.7986 87.5911 99.3802 87.877 99.8395C88.1684 100.308 88.6831 100.594 89.2068 100.767C90.3368 101.139 91.3018 100.942 92.4046 100.653C92.6972 100.576 95.8806 99.8774 95.8114 99.6234C97.1659 104.601 98.6125 109.553 99.9736 114.53C101.616 120.534 103.22 126.55 104.787 132.574C104.824 132.715 105.036 132.769 105.111 132.626C106.19 130.558 107.251 128.483 108.537 126.537C108.597 126.446 110.993 128.064 111.17 128.171C111.684 128.483 112.2 128.793 112.716 129.1C112.974 129.253 113.233 129.407 113.492 129.559C113.734 129.702 113.978 129.884 114.25 129.963C114.279 129.971 114.304 129.965 114.328 129.961C114.403 130.147 114.709 130.081 114.653 129.874C113.03 123.861 111.409 117.848 109.786 111.834C108.99 108.887 108.195 105.94 107.399 102.992C106.985 101.459 106.571 99.9268 106.157 98.3941C106.033 97.9318 105.915 97.467 105.796 97.0029C106.769 96.7705 107.727 96.4797 108.694 96.2215C109.67 95.9602 110.65 95.7092 111.635 95.4678C112.095 96.6555 112.511 97.8601 112.896 99.0738C113.307 100.373 113.499 103.081 114.977 103.621C117.888 104.686 117.935 100.651 117.598 98.8841C117.356 97.6133 116.891 96.3967 116.429 95.1879C116.298 94.8459 116.167 94.5082 116.034 94.1735C116.067 94.2578 121.032 92.7636 121.54 92.6299C124.473 91.8588 127.407 91.0882 130.34 90.3171C131.06 90.128 131.78 89.9384 132.501 89.7488C132.978 89.623 133.479 89.508 133.935 89.3322C133.939 89.7843 134.038 90.2027 134.052 90.6518C134.066 91.1177 134.004 91.5831 134.028 92.049C134.067 92.8232 134.115 93.5974 134.176 94.3703C134.288 95.7766 134.348 97.9793 136.306 97.9023C137.02 97.874 137.699 97.4056 137.979 96.7476C138.068 96.5399 138.118 96.319 138.165 96.0987C138.581 94.141 138.673 92.2212 138.717 90.228C138.735 89.4466 138.727 88.6646 138.708 87.8832C140.347 87.3968 141.999 86.9374 143.669 86.5702C145.487 86.1699 147.452 85.6841 149.323 85.6985C151.355 85.7142 152.469 87.2234 153.175 88.9499C153.878 90.6662 154.335 92.4873 154.822 94.2734C156.865 101.777 158.908 109.28 160.951 116.783C161.628 119.271 162.25 121.775 162.926 124.263C163.589 126.702 164.477 129.092 165.082 131.54C166.344 136.654 167.807 141.714 169.185 146.797C169.309 147.255 169.432 147.712 169.555 148.17C170.396 151.318 171.159 154.496 172.131 157.607C172.571 159.016 173.071 160.406 173.504 161.817C173.843 162.926 173.996 164.056 174.253 165.181C174.616 166.777 174.598 168.521 173.557 169.859C172.555 171.146 171.089 171.593 169.567 171.981C168.863 172.158 168.16 172.335 167.458 172.518ZM182.974 167.388C181.915 168.695 179.705 169.202 178.175 169.673C177.045 170.022 175.84 170.234 174.691 170.574C173.965 170.789 173.239 171.004 172.512 171.22C172.941 170.817 173.433 170.472 173.788 170.002C174.517 169.039 174.864 167.861 174.806 166.666C176.264 166.287 177.775 165.902 179.157 165.308C179.713 165.069 180.155 164.691 180.2 164.05C180.231 163.62 180.102 163.195 179.974 162.783C178.907 159.34 178.034 155.826 177.083 152.348C175.147 145.269 173.211 138.19 171.274 131.11C170.273 127.448 169.31 123.79 168.214 120.158C168.112 119.82 168.098 119.474 168.006 119.129C167.759 118.201 167.507 117.274 167.257 116.346C166.757 114.492 166.257 112.637 165.757 110.782C164.376 105.656 162.993 100.529 161.612 95.4034C160.508 91.3061 159.443 87.1969 158.299 83.1105C157.925 81.7741 157.444 80.4202 156.226 79.6267C154.962 78.8026 153.381 78.749 151.935 78.9778C149.694 79.3324 147.476 80.0475 145.281 80.614C142.964 81.2112 140.633 81.7693 138.336 82.4393C138.22 81.1673 138.089 79.8964 137.924 78.6298C142.753 77.5071 147.54 76.1827 152.34 74.942C154.543 74.3725 157.265 73.4888 159.164 75.2586C160.652 76.6444 161.097 78.864 161.615 80.7411C164.274 90.3562 166.902 99.9798 169.502 109.611C170.79 114.765 172.264 119.879 173.631 125.014C173.899 126.02 174.28 126.989 174.532 127.998C174.809 129.105 175.137 130.197 175.438 131.298C175.904 133.003 176.37 134.709 176.837 136.414C177.786 139.884 178.734 143.354 179.683 146.824C180.648 150.353 181.613 153.882 182.578 157.411C183.027 159.052 183.527 160.688 183.91 162.345C184.11 163.21 184.237 164.113 184.128 164.999C184.009 165.956 183.586 166.601 183.011 167.34C183 167.357 182.987 167.372 182.974 167.388Z" fill="#574338"/>
<path d="M150.69 127.532C146.913 122.097 136.409 122.614 132.143 133.473C119.068 124.385 108.995 144.766 118.546 149.963C125.45 153.72 129.416 142.072 121.357 140.112C120.799 139.977 120.593 140.791 121.063 141.039C126.667 144.003 123.863 150.181 119.848 148.672C112.572 145.936 118.164 129.026 128.908 133.597C132.919 135.304 131.009 134.661 130.659 140.202C129.492 158.663 145.933 161.943 140.797 145.623C136.778 132.854 131.17 137.65 135.204 131.261C139.952 123.741 147.986 124.885 149.994 129.88C151.746 134.24 150.197 141.077 146.152 140.136C143.27 139.464 144.318 137.422 146.374 135.293C146.865 134.784 146.483 133.685 145.34 134.257C139.396 137.233 143.861 144.078 148.873 141.576C153.077 139.476 153.364 131.38 150.69 127.532ZM137.824 142.862C145.031 157.46 133.969 158.469 132.453 143.923C132.192 141.415 132.386 138.814 133.038 136.344C135.046 138.198 136.682 140.55 137.824 142.862Z" fill="#F8E6D5"/>
<path d="M151.931 96.2757C150.609 89.5501 150.922 88.9692 148.787 89.5309C147.765 89.7999 145.098 90.5524 144.159 91.0268C142.932 91.6463 144.515 94.4937 146.232 95.6556C147.634 96.6044 152.256 97.9306 151.931 96.2757ZM144.901 91.7318C144.893 91.6577 144.454 91.7751 148.56 90.7084C150.044 90.3231 149.459 89.3581 150.685 95.8278C146.85 95.5424 145.112 93.6112 144.901 91.7318Z" fill="#F8E6D5"/>
<path d="M96.2912 108.608C97.2796 106.786 97.3742 103.529 95.9992 103.544C94.9469 103.556 92.2331 104.117 91.2019 104.349C89.0485 104.833 89.5939 105.205 91.5185 111.783C91.9917 113.401 95.4833 110.096 96.2912 108.608ZM92.4173 110.812C90.5252 104.504 90.4512 105.63 91.9459 105.289C96.0823 104.344 95.638 104.442 95.6645 104.512C96.3429 106.277 95.6898 108.792 92.4173 110.812Z" fill="#F8E6D5"/>
<path d="M109.2 175.89C110.445 182.63 110.125 183.208 112.266 182.67C113.291 182.413 115.967 181.691 116.911 181.228C118.146 180.622 116.595 177.757 114.892 176.575C113.501 175.611 108.895 174.232 109.2 175.89ZM116.178 180.515C116.185 180.589 116.626 180.477 112.507 181.496C111.018 181.864 111.592 182.836 110.441 176.353C114.272 176.682 115.988 178.633 116.178 180.515Z" fill="#F8E6D5"/>
<path d="M107.73 166.773L106.178 161.13C105.159 157.427 104.14 153.725 103.121 150.022C101.028 142.411 98.8755 134.819 96.7144 127.228C95.517 123.021 94.2732 118.828 93.0223 114.636C92.9248 114.309 92.4179 114.424 92.5028 114.759C96.361 129.982 100.515 145.123 104.69 160.262C105.257 162.317 105.824 164.372 106.391 166.427C106.957 168.48 107.334 170.753 108.224 172.69C108.458 173.198 109.241 173.02 109.183 172.443C108.994 170.543 108.237 168.612 107.73 166.773Z" fill="#F8E6D5"/>
<path d="M154.91 108.866C154.641 107.784 154.358 106.705 154.053 105.632C153.44 103.477 152.662 101.366 151.851 99.2784C151.781 99.0984 151.473 99.2128 151.531 99.3976C152.195 101.534 152.76 103.692 153.326 105.855C153.599 106.894 153.854 107.936 154.088 108.984C154.322 110.031 154.443 111.161 154.791 112.173C154.951 112.64 155.611 112.404 155.582 111.959C155.514 110.93 155.158 109.866 154.91 108.866Z" fill="#F8E6D5"/>
<path d="M135.35 175.149C134.848 174.907 134.315 175.091 133.789 175.19C133.114 175.316 132.441 175.452 131.769 175.592C130.506 175.853 129.249 176.14 127.998 176.456C125.426 177.105 122.945 177.885 120.511 178.928C120.366 178.99 120.443 179.191 120.592 179.155C123.028 178.579 125.466 177.951 127.909 177.381C129.252 177.068 130.6 176.779 131.955 176.526C132.607 176.404 133.259 176.291 133.913 176.183C134.448 176.095 135.027 176.102 135.434 175.713C135.62 175.533 135.587 175.263 135.35 175.149Z" fill="#F8E6D5"/>
<path d="M131.098 94.6876C130.272 94.7261 129.387 95.0969 128.589 95.3118C127.74 95.54 126.89 95.7633 126.044 96.0035C124.42 96.4647 122.786 96.8843 121.216 97.4995C121.035 97.5705 121.039 97.9034 121.269 97.8715C122.99 97.6319 124.669 97.1792 126.361 96.7741C127.195 96.5742 128.024 96.3527 128.855 96.1402C129.269 96.0342 129.685 95.9277 130.099 95.8211C130.493 95.7206 130.928 95.6568 131.289 95.4678C131.688 95.2583 131.579 94.6653 131.098 94.6876Z" fill="#F8E6D5"/>
<path d="M145.552 105.864C140.28 106.378 135.101 108.26 130.107 109.922C127.614 110.753 125.12 111.588 122.6 112.332C121.352 112.701 120.097 113.043 118.832 113.344C118.026 113.535 117.222 113.737 116.414 113.918C115.703 114.079 114.923 114.156 114.282 114.511C114.127 114.598 114.186 114.834 114.345 114.872C115.518 115.153 117.01 114.739 118.18 114.526C119.489 114.287 120.786 113.95 122.071 113.607C124.694 112.907 127.273 112.066 129.85 111.213C132.362 110.382 134.873 109.543 137.417 108.812C140.159 108.023 142.923 107.467 145.728 106.959C146.344 106.847 146.178 105.803 145.552 105.864Z" fill="#F8E6D5"/>
<path d="M148.066 112.857C146.803 112.721 145.363 113.473 144.168 113.853C142.87 114.265 141.569 114.668 140.267 115.063C137.696 115.842 135.126 116.62 132.541 117.355C129.802 118.133 127.081 118.958 124.328 119.688C121.587 120.415 118.669 120.887 116.045 121.979C115.881 122.047 115.972 122.262 116.126 122.258C118.929 122.174 121.766 121.315 124.489 120.7C127.312 120.062 130.152 119.441 132.948 118.697C135.557 118.002 138.16 117.284 140.743 116.502C141.99 116.124 143.234 115.738 144.475 115.345C145.712 114.953 147.43 114.701 148.391 113.8C148.697 113.512 148.476 112.901 148.066 112.857Z" fill="#F8E6D5"/>
<path d="M176.203 198.735L172.856 192.492L166.613 195.84L177.469 159.878L187.059 162.773L176.203 198.735Z" fill="#CA7A49"/>
<path d="M217.749 118.157L167.176 102.13C163.843 101.074 160.284 102.921 159.228 106.253L139.29 169.169C138.614 171.304 139.798 173.588 141.934 174.264L194.673 190.977C196.808 191.654 199.092 190.469 199.769 188.333L220.393 123.251C221.069 121.117 219.885 118.833 217.749 118.157ZM196.683 187.356C196.546 187.787 196.082 188.028 195.651 187.892L192.034 186.745C192.17 186.51 192.277 186.258 192.363 185.987L210.836 127.693C211.513 125.556 210.33 123.275 208.193 122.597L165.247 108.988C164.986 108.829 164.743 108.663 164.521 108.494C162.914 107.268 164.23 104.616 166.163 105.205C166.175 105.208 166.186 105.212 166.198 105.215L214.026 120.371C215.975 120.989 217.055 123.07 216.437 125.02L196.683 187.356Z" fill="#725849"/>
<path d="M216.437 125.021L196.683 187.356C196.546 187.787 196.082 188.028 195.651 187.892L192.034 186.745C192.17 186.51 192.277 186.258 192.363 185.987L210.836 127.693C211.513 125.556 210.33 123.275 208.193 122.598L165.247 108.988C164.986 108.829 164.743 108.663 164.521 108.494C162.914 107.268 164.23 104.616 166.163 105.205C166.175 105.208 166.186 105.212 166.198 105.215L214.025 120.371C215.975 120.99 217.055 123.071 216.437 125.021Z" fill="white"/>
<path d="M216.84 87.3209C214.799 79.5051 205.079 78.1247 198.41 80.0012C191.135 82.0486 185.521 87.478 181.536 93.7214C176.82 101.109 173.971 109.724 173.714 118.503C173.646 120.858 177.191 120.923 177.358 118.592C177.866 111.476 179.83 104.439 183.311 98.1972C186.454 92.5601 190.912 87.1541 196.969 84.5577C199.999 83.2586 203.336 82.7168 206.602 83.2803C209.244 83.736 212.112 85.1091 213.009 87.829C213.97 90.7451 212.626 93.9242 210.905 96.2576C208.872 99.0111 206.219 101.243 203.883 103.727C198.738 109.199 194.414 115.783 193.374 123.361C193.037 125.818 196.855 126.279 197.192 123.829C198.154 116.81 202.404 110.816 207.18 105.797C209.673 103.177 212.511 100.818 214.529 97.7837C216.529 94.7743 217.781 90.9251 216.84 87.3209Z" fill="#CA7A49"/>
<path d="M179.964 186.261C178.529 190.14 177.306 194.09 176.288 198.099C175.058 196.161 173.983 194.136 173.084 192.023C173.021 191.875 172.837 191.87 172.724 191.952C170.958 193.232 169.131 194.421 167.258 195.538C168.47 191.462 169.565 187.327 170.384 183.155C170.411 183.012 170.201 182.943 170.164 183.088C169.057 187.404 167.937 191.706 166.652 195.974C166.599 196.151 166.793 196.357 166.971 196.253C168.967 195.085 170.901 193.82 172.779 192.472C173.73 194.669 174.858 196.777 176.167 198.783C176.267 198.937 176.543 198.966 176.597 198.749C177.641 194.564 178.915 190.443 180.414 186.399C180.52 186.114 180.069 185.977 179.964 186.261Z" fill="#574338"/>
<path d="M215.733 84.3651C214.832 83.2424 213.772 82.2503 212.586 81.4352C211.415 80.6309 210.126 80.0024 208.775 79.5641C207.389 79.1138 205.941 78.8634 204.485 78.7954C202.944 78.7231 201.396 78.855 199.883 79.1548C198.251 79.4787 196.661 79.9976 195.139 80.6694C193.479 81.402 191.901 82.3159 190.422 83.3652C188.794 84.5186 187.286 85.8352 185.899 87.2685C184.366 88.8542 182.982 90.5819 181.742 92.406C180.362 94.4347 179.16 96.5827 178.118 98.8035C177.552 100.01 177.033 101.238 176.559 102.483C175.955 104.066 175.489 105.698 175.088 107.343C175.052 107.493 175.021 107.644 174.986 107.794C173.097 107.1 171.208 106.407 169.319 105.713C167.872 105.182 166.092 104.381 164.616 105.262C163.61 105.862 163.13 107.1 163.859 108.109C164.707 109.284 166.501 109.718 167.785 110.175C169.831 110.904 171.91 111.502 174.038 111.935C174.027 111.989 174.012 112.041 174.002 112.096C173.728 113.528 173.51 114.973 173.349 116.422C173.188 117.871 173.714 121.162 175.9 120.527C176.674 120.303 177.32 119.633 177.585 118.881C177.927 117.906 178.055 115.89 178.449 113.199C180.952 114.313 183.612 115.136 186.208 116.003C188.805 116.871 191.417 117.694 194.04 118.48C193.784 119.187 193.558 119.902 193.384 120.628C192.964 122.383 192.796 126.166 195.711 125.609C197.289 125.308 197.557 123.197 197.824 121.882C197.988 121.079 198.289 120.298 198.558 119.523C199.279 117.447 200.189 115.44 201.335 113.564C202.152 112.228 203.071 110.958 204.044 109.732C206.057 107.194 208.325 104.874 210.516 102.492C212.142 100.723 213.93 99.2453 215.282 97.222C216.541 95.3353 217.432 93.1766 217.636 90.9263C217.847 88.617 217.191 86.1831 215.733 84.3651ZM168.194 109.965C167.276 109.638 166.326 109.319 165.452 108.886C164.681 108.505 163.774 107.881 163.872 106.901C163.97 105.913 165.014 105.316 165.915 105.257C166.951 105.189 167.96 105.611 168.913 105.959C170.91 106.691 172.907 107.422 174.905 108.153C174.776 108.709 174.645 109.266 174.526 109.824C174.388 110.47 174.222 111.095 174.083 111.734C172.1 111.222 170.125 110.652 168.194 109.965ZM186.16 115.612C183.599 114.755 181.072 113.747 178.482 112.981C178.65 111.86 178.869 110.622 179.162 109.302C181.868 110.435 184.732 111.287 187.516 112.2C190.234 113.091 192.962 113.955 195.696 114.798C195.121 115.886 194.594 117.001 194.16 118.144C191.48 117.341 188.813 116.499 186.16 115.612ZM195.889 114.441C193.043 113.564 190.206 112.661 187.376 111.734C184.662 110.845 181.967 109.824 179.221 109.039C180.294 104.353 182.381 98.6138 186.941 92.9135C199.829 76.8004 216.237 83.196 212.495 92.9966C211.038 96.8132 207.319 99.3754 204.603 102.267C201.984 105.056 199.676 108.159 197.66 111.408C197.05 112.39 196.451 113.404 195.889 114.441ZM206.119 106.23C203.045 109.677 200.104 113.398 198.578 117.811C198.105 119.18 197.688 120.569 197.33 121.973C197.113 122.825 196.902 124.515 196.077 125.043C195.605 125.356 195.126 125.27 194.648 125.015C192.041 123.617 195.154 117.121 196.716 114.106C201.359 105.138 206.681 101.429 210.5 97.1155C212.507 94.8477 214.273 91.7679 213.563 88.6315C212.976 86.0386 210.793 84.2519 208.379 83.3904C205.206 82.2593 201.645 82.5254 198.479 83.5373C194.146 84.9231 190.392 87.7495 187.441 91.1683C183.206 96.0758 180.533 102.174 178.839 108.381C178.386 110.043 178.07 111.74 177.842 113.447C177.704 114.471 177.642 115.504 177.553 116.533C177.505 117.08 177.482 117.63 177.397 118.173C177.251 119.097 176.694 119.907 175.794 120.23C174.847 120.569 174.087 119.56 173.894 118.755C173.788 118.315 173.776 117.861 173.787 117.411C173.795 117.022 173.877 116.665 173.904 116.286C173.97 115.375 173.935 114.46 174.133 113.563C174.315 112.744 174.386 111.89 174.542 111.064C174.699 110.234 174.879 109.406 175.082 108.586C175.487 106.945 175.988 105.327 176.602 103.751C177.757 100.784 179.15 97.9047 180.78 95.1686C182.412 92.4295 184.276 89.8132 186.453 87.478C187.5 86.3559 188.516 85.3169 189.781 84.4518C191.104 83.5464 192.478 82.7162 193.894 81.9655C196.571 80.5466 199.385 79.5148 202.445 79.4486C205.346 79.3859 208.284 79.9891 210.864 81.3358C211.559 81.6988 212.226 82.1148 212.856 82.5832C214.367 83.7071 215.533 85.1802 216.362 86.8658C216.849 87.8579 217.076 88.9571 217.084 90.0594C217.102 92.4054 216.293 94.6942 214.936 96.6068C214.078 97.8168 213.115 98.9522 212.107 100.04C210.159 102.143 208.015 104.106 206.119 106.23Z" fill="#574338"/>
<path d="M216.124 121.67C215.361 120.362 214.031 120.044 212.549 119.439C211.081 118.839 209.597 118.315 208.09 117.821C205.466 116.96 202.792 116.266 200.143 115.49C199.789 115.386 199.595 115.931 199.95 116.03C204.644 117.337 209.311 118.717 213.842 120.529C214.53 120.804 215.34 121.154 215.741 121.817C216.135 122.469 216.229 123.541 216.214 124.293C216.179 126.169 215.4 127.932 214.832 129.688L212.017 138.401C208.376 149.665 204.707 160.921 201.109 172.199C200.068 175.464 199.016 178.726 197.985 181.994C197.468 183.628 196.952 185.263 196.445 186.9C196.35 187.21 196.353 187.599 196.005 187.722C195.77 187.806 194.912 187.388 194.661 187.312C193.821 187.055 192.98 186.797 192.14 186.541C195.776 176.059 199.06 165.448 202.441 154.883C204.077 149.771 205.694 144.655 207.32 139.54C208.133 136.982 208.945 134.425 209.758 131.867C210.371 129.938 211.416 127.699 210.997 125.632C210.589 123.611 208.738 122.608 206.957 121.949C204.203 120.93 201.39 120.048 198.608 119.104C198.336 119.011 198.183 119.432 198.457 119.525C200.879 120.348 203.302 121.169 205.723 121.994C207.563 122.62 209.893 123.363 210.447 125.487C210.784 126.78 210.367 128.174 209.981 129.405C209.599 130.622 209.2 131.835 208.809 133.049C208.022 135.497 207.236 137.944 206.449 140.391C203.289 150.224 200.134 160.059 197.01 169.904C195.261 175.417 193.511 180.937 191.877 186.486C191.789 186.512 191.758 186.65 191.868 186.687C193.324 187.177 194.779 187.668 196.236 188.157C196.326 188.187 196.423 188.131 196.452 188.043C200.304 176.599 203.973 165.091 207.681 153.6C209.517 147.909 211.353 142.219 213.189 136.528C214.119 133.647 215.074 130.774 215.977 127.885C216.52 126.148 217.06 124.189 216.449 122.396C216.358 122.123 216.249 121.884 216.124 121.67Z" fill="#574338"/>
<path d="M197.559 111.426C194.559 110.459 191.559 109.489 188.558 108.525C187.118 108.062 185.675 107.605 184.234 107.145C182.817 106.693 181.326 106.042 179.843 105.879C179.733 105.867 179.708 106.006 179.795 106.055C181.091 106.784 182.679 107.125 184.09 107.583C185.592 108.07 187.093 108.56 188.596 109.043C191.537 109.989 194.48 110.932 197.422 111.876C197.71 111.969 197.848 111.519 197.559 111.426Z" fill="#574338"/>
<path d="M220.386 120.338C219.847 119.241 218.627 118.568 217.504 117.988C215.688 117.051 213.758 116.333 211.829 115.668C208.459 114.507 205.015 113.507 201.544 112.695C201.179 112.61 200.993 113.165 201.36 113.25C206.426 114.431 211.048 115.921 215.438 117.704C222.033 120.38 221.426 119.374 215.17 138.83C197.418 194.039 199.78 190.827 195.585 190.654C195.491 190.651 195.399 190.634 195.306 190.619C192.865 190.238 190.43 189.307 188.077 188.586C183.747 187.258 179.435 185.875 175.125 184.483C170.331 182.934 165.542 181.367 160.756 179.791C159.652 179.427 158.549 179.063 157.446 178.698C156.317 178.325 155.215 177.83 154.077 177.531C150.717 176.65 147.386 175.657 144.092 174.555C142.771 174.113 141.121 173.676 140.244 172.514C139.995 172.184 139.805 171.813 139.639 171.435C139.054 170.104 139.71 168.6 140.04 167.277C140.533 165.294 141.16 163.344 141.785 161.4C142.759 158.369 143.77 155.349 144.766 152.325C146.198 147.979 147.613 143.627 148.997 139.264C150.879 133.334 152.709 127.386 154.493 121.426C162.058 100.997 158.006 99.4506 175.777 105.03C176.128 105.141 176.324 104.597 175.97 104.489C160.498 99.7829 160.854 100.8 157.332 111.81C155.402 117.839 153.469 123.867 151.531 129.893C150.041 134.527 148.548 139.161 147.055 143.794C145.95 147.224 144.844 150.653 143.743 154.083C142.967 156.498 142.194 158.913 141.432 161.332C140.932 162.921 140.434 164.512 139.962 166.111C139.68 167.065 139.401 168.022 139.171 168.991C138.75 170.764 138.985 172.435 140.55 173.699C140.614 173.751 140.68 173.802 140.746 173.851C141.847 174.652 143.184 175.045 144.492 175.424C146.294 175.945 148.096 176.466 149.899 176.988C150.545 177.175 151.191 177.361 151.838 177.548C155.007 178.463 158.126 179.414 161.246 180.453C164.152 181.421 167.063 182.372 169.977 183.315C175.097 184.97 180.226 186.594 185.362 188.199C186.901 188.679 188.441 189.158 189.981 189.635C190.615 189.831 191.535 190.323 192.206 190.323C200.392 192.868 199.429 189.218 204.46 174.115C204.766 173.199 205.071 172.284 205.375 171.367C206.392 168.307 207.4 165.244 208.401 162.178C209.778 157.96 211.141 153.737 212.482 149.506C213.872 145.123 215.241 140.733 216.558 136.327C217.099 134.518 217.612 132.701 218.12 130.885C218.628 129.064 219.324 127.302 219.805 125.473C220.026 124.635 220.318 123.815 220.521 122.989C220.732 122.121 220.791 121.162 220.386 120.338Z" fill="#574338"/>
<path d="M191.886 186.399C190.431 189.039 187.361 188.341 187.232 188.389C186.628 188.613 188.128 189.326 189.969 188.504C192.166 187.525 192.195 185.841 191.886 186.399Z" fill="#574338"/>
<path d="M187.446 168.352C187.096 159.32 171.905 162.655 171.879 163.365C171.421 163.451 170.964 163.541 170.508 163.637C151.17 143.014 143.298 172.124 169.39 164.668C171.761 167.21 174.053 169.838 177.129 171.542C183.151 174.879 187.6 172.314 187.446 168.352ZM164.5 164.726C147.382 166.411 153.928 148.373 168.766 164.005C167.354 164.305 165.938 164.584 164.5 164.726ZM171.039 164.205C172.285 163.863 179.533 163.486 181.327 163.821C190.762 165.582 185.908 180.142 171.039 164.205Z" fill="#F8E6D5"/>
<path d="M196.763 136.722C195.45 136.107 193.936 135.789 192.55 135.361L188.37 134.072C185.647 133.232 182.924 132.39 180.195 131.567C177.486 130.75 174.777 129.932 172.068 129.114C169.251 128.262 166.482 127.169 163.633 126.436C163.507 126.404 163.45 126.587 163.56 126.646C165.991 127.957 168.742 128.754 171.355 129.623C174.128 130.546 176.922 131.405 179.71 132.284C182.496 133.163 185.288 134.022 188.08 134.883C189.474 135.313 190.867 135.743 192.26 136.173C193.643 136.599 195.072 137.197 196.501 137.426C196.901 137.489 197.171 136.912 196.763 136.722Z" fill="#F8E6D5"/>
<path d="M193.588 142.754C191.222 141.627 188.583 140.983 186.096 140.169C183.445 139.302 180.797 138.427 178.14 137.576C175.588 136.758 173.028 135.952 170.433 135.279C167.702 134.57 164.928 133.866 162.105 133.668C161.897 133.653 161.86 133.968 162.054 134.023C164.629 134.75 167.25 135.305 169.826 136.03C172.425 136.761 175.009 137.542 177.579 138.369C180.181 139.205 182.775 140.069 185.372 140.924C187.973 141.781 190.614 142.89 193.304 143.412C193.676 143.484 193.982 142.941 193.588 142.754Z" fill="#F8E6D5"/>
<path d="M192.138 149.502C191.071 148.691 189.684 148.425 188.424 148.025C187.099 147.604 185.773 147.183 184.447 146.762C181.796 145.919 179.146 145.076 176.496 144.229C173.867 143.389 171.234 142.563 168.599 141.744C167.316 141.346 166.039 140.936 164.745 140.574C163.347 140.184 161.886 139.61 160.438 139.473C160.226 139.452 160.059 139.765 160.271 139.89C161.463 140.594 162.889 140.981 164.185 141.459C165.484 141.939 166.799 142.371 168.112 142.812C170.775 143.705 173.444 144.575 176.119 145.432C178.772 146.282 181.427 147.129 184.081 147.975C185.35 148.38 186.62 148.784 187.89 149.189C189.188 149.603 190.524 150.203 191.901 150.176C192.22 150.17 192.404 149.704 192.138 149.502Z" fill="#F8E6D5"/>
<path d="M162.359 114.54C159.915 121.155 157.691 127.862 155.392 134.529C153.093 141.197 150.775 147.859 148.516 154.542C147.232 158.343 145.974 162.151 144.726 165.965C144.653 166.188 144.995 166.277 145.075 166.061C150.012 152.729 154.739 139.315 159.413 125.887C160.705 122.176 162.039 118.476 163.283 114.748C163.478 114.163 162.565 113.982 162.359 114.54Z" fill="#F8E6D5"/>
<path d="M207.707 127.991C206.939 129.667 206.419 131.482 205.807 133.22L204.044 138.226C202.849 141.621 201.653 145.016 200.458 148.411C198.05 155.25 195.696 162.109 193.348 168.968C191.986 172.948 190.419 176.923 189.368 180.998C189.318 181.191 189.578 181.285 189.66 181.102C191.178 177.729 192.316 174.164 193.576 170.689C194.815 167.273 196.036 163.85 197.276 160.435C199.749 153.622 202.152 146.784 204.563 139.949C205.234 138.048 205.904 136.149 206.575 134.248C207.267 132.283 208.09 130.319 208.612 128.301C208.747 127.776 207.933 127.498 207.707 127.991Z" fill="#F8E6D5"/>
<path d="M172.593 113.592C172.088 113.277 171.467 113.099 170.905 112.91C170.341 112.72 169.769 112.556 169.19 112.42C167.979 112.137 166.751 111.956 165.51 111.882C165.245 111.866 165.074 112.103 165.204 112.343C165.926 113.681 164.51 114.969 163.182 114.499C162.989 114.43 162.862 114.734 163.043 114.829C163.825 115.242 164.785 115.128 165.409 114.477C165.918 113.946 166.058 113.206 165.89 112.523C166.93 112.634 167.961 112.81 168.974 113.074C169.529 113.219 170.079 113.381 170.623 113.566C171.176 113.753 171.722 114.041 172.286 114.182C172.626 114.266 172.94 113.808 172.593 113.592Z" fill="#F8E6D5"/>
<path d="M191.53 119.37C191.039 119.217 190.486 119.238 189.974 119.179C189.475 119.123 188.975 119.055 188.478 118.975C187.554 118.825 186.639 118.624 185.738 118.372C183.711 117.807 181.783 116.957 179.907 116.015C179.757 115.94 179.633 116.178 179.768 116.27C181.492 117.461 183.411 118.313 185.404 118.952C186.388 119.268 187.391 119.525 188.406 119.721C188.911 119.819 189.418 119.898 189.93 119.959C190.437 120.019 190.985 120.129 191.49 120.035C191.824 119.972 191.859 119.471 191.53 119.37Z" fill="#F8E6D5"/>
<path d="M208.296 127.554C207.775 127.64 207.379 127.857 206.827 127.745C206.351 127.649 205.897 127.394 205.606 126.997C204.997 126.165 205.212 124.909 205.992 124.267C206.215 124.083 206.124 123.783 205.862 123.708C203.804 123.111 201.742 122.479 199.651 122.004C199.449 121.959 199.347 122.241 199.548 122.315C201.417 123.003 203.333 123.574 205.237 124.158C204.512 125.042 204.363 126.361 205.019 127.343C205.387 127.894 205.983 128.279 206.626 128.429C207.248 128.574 208.14 128.573 208.606 128.072C208.806 127.859 208.557 127.51 208.296 127.554Z" fill="#F8E6D5"/>
<path d="M144.812 165.601C144.51 165.486 144.356 165.949 144.65 166.073C145.384 166.383 145.896 167.176 145.85 167.978C145.827 168.378 145.659 168.756 145.407 169.064C145.131 169.401 144.779 169.575 144.361 169.67C143.874 169.781 144.139 170.602 144.628 170.416C145.633 170.034 146.411 169.101 146.446 168.005C146.48 166.958 145.779 165.969 144.812 165.601Z" fill="#F8E6D5"/>
<path d="M189.694 180.597C189.519 180.429 189.254 180.333 189.013 180.337C188.572 180.344 188.109 180.564 187.75 180.804C187.018 181.294 186.477 182.094 186.291 182.955C186.241 183.183 186.215 183.418 186.214 183.652C185.272 183.245 184.267 182.927 183.337 182.569C181.967 182.041 180.594 181.521 179.218 181.008C176.467 179.982 173.704 178.987 170.93 178.024C165.404 176.104 159.839 174.304 154.235 172.629C150.923 171.64 147.586 170.63 144.194 169.957C143.938 169.906 143.872 170.261 144.107 170.344C147.768 171.625 151.542 172.604 155.253 173.728C158.797 174.803 162.327 175.927 165.84 177.1C169.432 178.299 173.005 179.552 176.561 180.855C178.327 181.503 180.088 182.163 181.846 182.836C183.588 183.503 185.402 184.469 187.228 184.849C187.527 184.912 187.735 184.448 187.466 184.282C187.318 184.191 187.155 184.117 186.999 184.034C186.977 183.912 186.955 183.79 186.949 183.666C186.939 183.456 186.954 183.244 186.997 183.037C187.09 182.602 187.279 182.195 187.551 181.843C187.814 181.503 188.156 181.214 188.552 181.039C188.718 180.966 188.932 180.877 189.115 180.863C189.218 180.855 189.544 180.92 189.475 181.061C189.407 181.202 189.596 181.306 189.705 181.227C189.936 181.058 189.887 180.781 189.694 180.597Z" fill="#F8E6D5"/>
<path d="M104.235 241.222V241.444C104.235 242.184 103.95 242.998 103.379 243.887C102.808 244.754 101.835 245.589 100.46 246.393C99.9312 246.71 99.4447 246.954 99.0005 247.123C98.5564 247.313 98.1016 247.472 97.6363 247.599C97.1921 247.747 96.7162 247.884 96.2086 248.011C95.701 248.138 95.1299 248.307 94.4954 248.519H92.8773C92.3697 248.477 91.9889 248.381 91.7351 248.233C91.4813 248.106 91.3015 247.927 91.1958 247.694C91.09 247.482 91.0371 247.218 91.0371 246.901C91.0371 246.583 91.0371 246.213 91.0371 245.79C91.0371 245.663 91.0371 245.536 91.0371 245.41C91.0371 245.283 91.0477 245.145 91.0689 244.997C91.0477 244.891 91.0371 244.775 91.0371 244.648C91.0371 244.521 91.0371 244.373 91.0371 244.204C91.0371 242.766 91.0794 241.645 91.1641 240.841C91.2698 240.037 91.3227 239.413 91.3227 238.969C91.3227 238.715 91.3121 238.44 91.291 238.144C91.291 237.848 91.291 237.52 91.291 237.161C91.3333 236.59 91.3861 235.944 91.4496 235.225C91.513 234.506 91.5659 233.702 91.6082 232.814C91.5871 232.645 91.5342 232.423 91.4496 232.148C91.365 231.852 91.2698 231.566 91.1641 231.291C91.0794 230.995 90.9948 230.741 90.9102 230.53C90.8468 230.297 90.8151 230.181 90.8151 230.181C90.8151 229.842 91.0266 229.515 91.4496 229.197C91.8938 228.88 92.5071 228.7 93.2897 228.658C94.3684 228.171 95.3731 227.928 96.3038 227.928C96.3884 227.928 96.5153 227.928 96.6845 227.928C96.8537 227.907 97.0652 227.918 97.319 227.96C97.5728 228.002 97.869 228.097 98.2074 228.245C98.5669 228.372 98.9582 228.584 99.3813 228.88L100.682 229.927L101.158 230.942C101.348 231.386 101.444 231.831 101.444 232.275C101.444 233.29 101.063 234.252 100.301 235.162C101.74 235.775 102.617 236.272 102.935 236.653C103.104 236.886 103.273 237.192 103.442 237.573C103.611 237.954 103.749 238.43 103.855 239.001L104.235 241.222ZM98.3977 231.767C98.3766 231.704 98.3131 231.608 98.2074 231.482C98.1228 231.334 97.9959 231.196 97.8267 231.069C97.6575 230.921 97.4565 230.805 97.2239 230.72C96.9912 230.614 96.7268 230.561 96.4307 230.561C95.5212 230.561 94.8549 230.741 94.4319 231.101C94.3896 231.249 94.3684 231.418 94.3684 231.608C94.3684 231.799 94.3684 232.021 94.3684 232.275C94.3684 232.529 94.3473 232.835 94.305 233.195C94.2838 233.533 94.2204 233.935 94.1146 234.4C93.9877 234.908 93.9243 235.225 93.9243 235.352C95.2568 235.12 96.3461 234.728 97.1921 234.178C98.0382 233.628 98.4612 233.026 98.4612 232.37C98.4612 232.264 98.4506 232.169 98.4295 232.084C98.4295 231.979 98.4189 231.873 98.3977 231.767ZM101.19 241.951C101.274 241.698 101.317 241.401 101.317 241.063C101.317 240.428 101.211 239.879 100.999 239.413C100.788 238.927 100.502 238.535 100.143 238.239C99.8043 237.943 99.4024 237.721 98.9371 237.573C98.4718 237.425 97.9853 237.351 97.4777 237.351C97.2662 237.351 96.9912 237.393 96.6528 237.478C96.3355 237.563 95.9971 237.658 95.6375 237.763C95.2991 237.869 94.9818 237.975 94.6857 238.081C94.4108 238.165 94.2204 238.218 94.1146 238.239V238.969C94.1146 239.54 94.1041 240.048 94.0829 240.492C94.0618 240.915 94.0406 241.37 94.0195 241.856C93.9983 242.322 93.9772 242.85 93.956 243.443C93.9349 244.035 93.9137 244.764 93.8925 245.632H94.0512C94.5377 245.632 95.151 245.505 95.8913 245.251L98.2708 244.394C98.5246 244.31 98.8102 244.172 99.1275 243.982C99.4447 243.77 99.7408 243.548 100.016 243.316C100.291 243.062 100.534 242.819 100.746 242.586C100.978 242.353 101.126 242.142 101.19 241.951ZM116.426 246.076C116.151 246.266 115.707 246.457 115.094 246.647C114.48 246.816 113.846 246.964 113.19 247.091L111.889 246.837C111.699 246.774 111.382 246.626 110.937 246.393C110.514 246.16 110.081 245.811 109.637 245.346C109.193 244.86 108.801 244.246 108.463 243.506C108.124 242.745 107.955 241.824 107.955 240.746C107.955 240.365 108.04 239.921 108.209 239.413C108.399 238.884 108.674 238.398 109.034 237.954C109.393 237.488 109.838 237.097 110.366 236.78C110.916 236.463 111.551 236.304 112.27 236.304C113.708 236.304 115.009 236.769 116.172 237.7C117.188 239.096 117.695 240.64 117.695 242.332C117.695 243.58 117.272 244.828 116.426 246.076ZM114.872 241.571C114.766 240.746 114.501 240.101 114.078 239.635C113.677 239.149 113.158 238.906 112.524 238.906C112.101 238.906 111.699 239.117 111.318 239.54C110.959 239.942 110.779 240.534 110.779 241.317C110.779 241.634 110.821 241.973 110.906 242.332C110.99 242.671 111.128 242.988 111.318 243.284C111.509 243.559 111.752 243.792 112.048 243.982C112.344 244.151 112.704 244.236 113.127 244.236C113.803 244.236 114.269 244.035 114.523 243.633C114.776 243.21 114.903 242.692 114.903 242.078C114.903 241.994 114.893 241.92 114.872 241.856C114.872 241.772 114.872 241.676 114.872 241.571ZM129.811 246.076C129.536 246.266 129.092 246.457 128.478 246.647C127.865 246.816 127.23 246.964 126.575 247.091L125.274 246.837C125.084 246.774 124.766 246.626 124.322 246.393C123.899 246.16 123.466 245.811 123.021 245.346C122.577 244.86 122.186 244.246 121.847 243.506C121.509 242.745 121.34 241.824 121.34 240.746C121.34 240.365 121.424 239.921 121.594 239.413C121.784 238.884 122.059 238.398 122.419 237.954C122.778 237.488 123.222 237.097 123.751 236.78C124.301 236.463 124.936 236.304 125.655 236.304C127.093 236.304 128.394 236.769 129.557 237.7C130.572 239.096 131.08 240.64 131.08 242.332C131.08 243.58 130.657 244.828 129.811 246.076ZM128.256 241.571C128.151 240.746 127.886 240.101 127.463 239.635C127.061 239.149 126.543 238.906 125.909 238.906C125.485 238.906 125.084 239.117 124.703 239.54C124.343 239.942 124.164 240.534 124.164 241.317C124.164 241.634 124.206 241.973 124.29 242.332C124.375 242.671 124.513 242.988 124.703 243.284C124.893 243.559 125.136 243.792 125.433 243.982C125.729 244.151 126.088 244.236 126.511 244.236C127.188 244.236 127.653 244.035 127.907 243.633C128.161 243.21 128.288 242.692 128.288 242.078C128.288 241.994 128.277 241.92 128.256 241.856C128.256 241.772 128.256 241.676 128.256 241.571ZM145.131 244.109C145.152 244.193 145.163 244.267 145.163 244.331C145.184 244.394 145.194 244.468 145.194 244.553C145.194 244.997 145.057 245.357 144.782 245.632C144.507 245.907 144.19 246.044 143.83 246.044C143.513 246.044 143.227 245.907 142.974 245.632C142.72 245.357 142.445 245.008 142.149 244.585C141.874 244.162 141.556 243.696 141.197 243.189C140.837 242.681 140.393 242.195 139.864 241.729C139.78 241.645 139.621 241.528 139.388 241.38C139.156 241.211 138.86 241 138.5 240.746L138.31 240.841C138.267 240.989 138.236 241.169 138.215 241.38C138.151 241.74 138.119 242.216 138.119 242.808C138.119 242.977 138.14 243.168 138.183 243.379C138.183 243.421 138.172 243.464 138.151 243.506C138.151 243.548 138.151 243.601 138.151 243.665C138.151 243.855 138.151 244.109 138.151 244.426C138.172 244.722 138.193 245.018 138.215 245.314C138.236 245.589 138.246 245.833 138.246 246.044C138.267 246.256 138.278 246.351 138.278 246.33C138.278 246.689 138.119 246.964 137.802 247.155C137.485 247.345 137.136 247.44 136.755 247.44C136.205 247.44 135.835 247.176 135.645 246.647C135.475 246.118 135.391 245.219 135.391 243.95C135.391 243.104 135.423 242.343 135.486 241.666C135.549 240.968 135.581 240.354 135.581 239.826V239.286C135.581 239.181 135.592 239.001 135.613 238.747C135.655 238.493 135.687 238.208 135.708 237.89C135.75 237.573 135.782 237.256 135.803 236.939C135.846 236.6 135.867 236.315 135.867 236.082V235.733C135.888 235.669 135.92 235.384 135.962 234.876C136.004 234.369 136.078 233.787 136.184 233.131C136.29 232.455 136.417 231.767 136.565 231.069C136.734 230.35 136.935 229.747 137.168 229.261C137.316 228.943 137.643 228.785 138.151 228.785C139.103 228.785 139.579 229.155 139.579 229.895C139.579 230.064 139.536 230.382 139.452 230.847C139.367 231.312 139.272 231.82 139.166 232.37C139.082 232.899 138.997 233.417 138.912 233.925C138.849 234.432 138.817 234.813 138.817 235.067C138.775 235.13 138.68 235.923 138.532 237.446C138.849 237.235 139.135 237.023 139.388 236.812C139.663 236.579 139.949 236.346 140.245 236.114C140.541 235.881 140.89 235.638 141.292 235.384C141.694 235.109 142.191 234.802 142.783 234.464C142.825 234.464 142.857 234.464 142.878 234.464C142.899 234.443 142.931 234.432 142.974 234.432C143.291 234.432 143.608 234.58 143.925 234.876C144.243 235.172 144.401 235.511 144.401 235.892C144.401 236.124 144.391 236.293 144.369 236.399C144.348 236.484 144.253 236.59 144.084 236.716C143.936 236.843 143.682 237.013 143.322 237.224C142.963 237.436 142.455 237.763 141.8 238.208C141.757 238.313 141.408 238.557 140.753 238.937C141.006 239.149 141.165 239.286 141.229 239.35C141.313 239.413 141.419 239.519 141.546 239.667C141.673 239.794 141.884 240.027 142.18 240.365C142.498 240.682 143.026 241.211 143.767 241.951C144.169 242.501 144.623 243.22 145.131 244.109Z" fill="#725849"/>
<path d="M160.224 240.46C160.203 241.095 160.182 241.602 160.161 241.983C160.14 242.343 160.108 242.649 160.066 242.903C160.045 243.136 159.992 243.347 159.907 243.538C159.844 243.728 159.749 243.961 159.622 244.236C159.177 245.251 158.49 246.034 157.559 246.583C156.629 247.133 155.444 247.408 154.006 247.408C153.498 247.408 153.096 247.408 152.8 247.408C152.504 247.408 152.176 247.355 151.817 247.25C151.478 247.144 151.045 246.964 150.516 246.71C149.987 246.435 149.236 246.044 148.263 245.536C147.502 245.135 147.121 244.627 147.121 244.014C147.121 243.633 147.248 243.294 147.502 242.998C147.756 242.681 148.084 242.501 148.486 242.459C150.008 242.945 151.055 243.453 151.626 243.982C152.388 244.32 153.308 244.49 154.387 244.49C155.296 244.49 156.026 244.225 156.576 243.696C156.66 243.464 156.745 243.136 156.83 242.713C156.935 242.29 156.988 241.782 156.988 241.19C156.988 240.725 156.851 240.344 156.576 240.048C156.301 239.731 155.952 239.456 155.529 239.223C155.106 238.99 154.63 238.779 154.101 238.588C153.594 238.398 153.107 238.197 152.642 237.986C152.282 237.837 151.923 237.668 151.563 237.478C151.203 237.288 150.844 237.044 150.484 236.748C149.575 235.204 149.12 234.115 149.12 233.48C149.12 231.894 150.061 230.382 151.944 228.943C153.699 228.288 154.894 227.96 155.529 227.96C155.762 227.96 156.068 228.045 156.449 228.214C156.83 228.383 157.2 228.594 157.559 228.848C157.94 229.102 158.257 229.388 158.511 229.705C158.786 230.001 158.924 230.297 158.924 230.593C158.924 230.953 158.776 231.27 158.479 231.545C158.204 231.799 157.845 231.926 157.401 231.926C157.358 231.926 157.242 231.862 157.052 231.735C156.861 231.608 156.629 231.471 156.354 231.323C156.1 231.175 155.836 231.037 155.561 230.91C155.307 230.784 155.095 230.72 154.926 230.72C154.566 230.72 154.217 230.805 153.879 230.974C153.562 231.143 153.276 231.355 153.022 231.608C152.769 231.862 152.568 232.148 152.42 232.465C152.272 232.761 152.198 233.036 152.198 233.29C152.198 233.776 152.346 234.21 152.642 234.591C152.938 234.972 153.297 235.278 153.72 235.511L155.719 236.209C156.227 236.399 156.724 236.642 157.21 236.939C157.697 237.235 158.141 237.573 158.543 237.954C158.945 238.313 159.294 238.715 159.59 239.159C159.886 239.582 160.097 240.016 160.224 240.46ZM172.747 234.908C172.979 235.098 173.096 235.447 173.096 235.955C173.096 236.886 172.747 237.351 172.049 237.351H171.922C171.605 237.372 171.234 237.404 170.811 237.446C170.388 237.467 169.913 237.51 169.384 237.573C169.341 237.912 169.299 238.366 169.257 238.937C169.215 239.487 169.193 240.154 169.193 240.936C169.193 241 169.193 241.063 169.193 241.126C169.215 241.19 169.225 241.264 169.225 241.349V242.808C169.225 243.146 169.278 243.421 169.384 243.633C169.511 243.823 169.659 243.961 169.828 244.045L170.716 244.331C171.414 244.564 171.763 244.987 171.763 245.6C171.763 245.96 171.615 246.277 171.319 246.552C171.044 246.827 170.685 246.964 170.24 246.964C170.113 246.964 169.891 246.932 169.574 246.869C169.278 246.784 168.961 246.679 168.622 246.552C168.305 246.425 167.998 246.266 167.702 246.076C167.427 245.885 167.237 245.674 167.131 245.441C166.898 244.955 166.708 244.447 166.56 243.918C166.412 243.369 166.338 242.797 166.338 242.205C166.338 241.55 166.349 241.084 166.37 240.809C166.391 240.534 166.412 240.291 166.433 240.08C166.454 239.868 166.475 239.614 166.497 239.318C166.518 239.022 166.528 238.535 166.528 237.859C166.126 237.901 165.534 238.028 164.752 238.239C164.286 238.239 163.884 238.123 163.546 237.89C163.229 237.637 163.07 237.309 163.07 236.907C163.07 236.611 163.155 236.336 163.324 236.082C163.514 235.828 163.895 235.606 164.466 235.416C164.656 235.352 164.826 235.31 164.974 235.289C165.143 235.268 165.302 235.246 165.45 235.225C165.619 235.204 165.799 235.194 165.989 235.194C166.179 235.172 166.412 235.141 166.687 235.098C166.708 234.57 166.74 233.977 166.782 233.322C166.846 232.645 166.941 232.021 167.068 231.45C167.216 230.879 167.417 230.403 167.671 230.022C167.945 229.62 168.305 229.419 168.749 229.419C169.511 229.419 169.976 229.768 170.145 230.466C170.145 230.487 170.113 230.636 170.05 230.91C170.008 231.164 169.955 231.45 169.891 231.767C169.828 232.084 169.764 232.391 169.701 232.687C169.659 232.983 169.638 233.174 169.638 233.258L169.542 234.813C169.69 234.792 169.828 234.781 169.955 234.781C170.082 234.76 170.219 234.749 170.367 234.749H170.653C170.801 234.749 170.938 234.749 171.065 234.749C171.192 234.728 171.309 234.718 171.414 234.718C172.049 234.718 172.493 234.781 172.747 234.908ZM184.031 246.076C183.756 246.266 183.312 246.457 182.699 246.647C182.085 246.816 181.451 246.964 180.795 247.091L179.494 246.837C179.304 246.774 178.987 246.626 178.543 246.393C178.12 246.16 177.686 245.811 177.242 245.346C176.798 244.86 176.406 244.246 176.068 243.506C175.73 242.745 175.56 241.824 175.56 240.746C175.56 240.365 175.645 239.921 175.814 239.413C176.004 238.884 176.279 238.398 176.639 237.954C176.999 237.488 177.443 237.097 177.972 236.78C178.521 236.463 179.156 236.304 179.875 236.304C181.313 236.304 182.614 236.769 183.778 237.7C184.793 239.096 185.3 240.64 185.3 242.332C185.3 243.58 184.877 244.828 184.031 246.076ZM182.477 241.571C182.371 240.746 182.107 240.101 181.684 239.635C181.282 239.149 180.763 238.906 180.129 238.906C179.706 238.906 179.304 239.117 178.923 239.54C178.564 239.942 178.384 240.534 178.384 241.317C178.384 241.634 178.426 241.973 178.511 242.332C178.595 242.671 178.733 242.988 178.923 243.284C179.114 243.559 179.357 243.792 179.653 243.982C179.949 244.151 180.309 244.236 180.732 244.236C181.409 244.236 181.874 244.035 182.128 243.633C182.382 243.21 182.508 242.692 182.508 242.078C182.508 241.994 182.498 241.92 182.477 241.856C182.477 241.772 182.477 241.676 182.477 241.571ZM197.892 236.082C198.23 236.293 198.4 236.695 198.4 237.288C198.4 237.732 198.283 238.112 198.051 238.43C197.818 238.747 197.501 238.906 197.099 238.906C196.845 238.906 196.581 238.842 196.306 238.715C196.052 238.567 195.777 238.493 195.481 238.493C195.227 238.493 194.973 238.546 194.719 238.652C194.487 238.736 194.212 238.937 193.894 239.255L192.943 240.206C192.943 240.354 192.943 240.503 192.943 240.651C192.964 240.799 192.974 240.957 192.974 241.126C192.974 241.38 192.964 241.645 192.943 241.92C192.943 242.195 192.932 242.491 192.911 242.808L193.196 245.695C193.133 246.668 192.636 247.155 191.705 247.155C191.219 247.155 190.859 247.007 190.627 246.71C190.394 246.393 190.235 245.96 190.151 245.41C190.066 244.86 190.024 244.215 190.024 243.474C190.045 242.734 190.045 241.92 190.024 241.031C189.981 239.699 189.95 239.033 189.929 239.033V239.064C189.844 238.747 189.78 238.472 189.738 238.239C189.696 237.986 189.675 237.763 189.675 237.573C189.675 237.192 189.812 236.886 190.087 236.653C190.362 236.399 190.764 236.272 191.293 236.272C191.631 236.272 192.033 236.537 192.498 237.065C192.985 236.685 193.355 236.399 193.609 236.209C193.884 236.018 194.106 235.881 194.275 235.796C194.465 235.712 194.645 235.669 194.814 235.669C194.984 235.648 195.206 235.638 195.481 235.638C195.713 235.617 195.925 235.627 196.115 235.669C196.327 235.712 196.549 235.754 196.781 235.796L197.892 236.082ZM212.418 245.6C211.741 246.277 210.979 246.848 210.133 247.313C209.287 247.8 208.431 248.043 207.563 248.043C206.781 248.043 205.776 247.916 204.549 247.662C204.126 247.387 203.703 247.059 203.28 246.679C202.857 246.277 202.477 245.843 202.138 245.378C201.8 244.891 201.525 244.373 201.313 243.823C201.102 243.252 200.996 242.671 200.996 242.078C200.996 241.909 201.007 241.687 201.028 241.412C201.049 241.116 201.07 240.83 201.091 240.555C201.133 240.259 201.165 240.005 201.186 239.794C201.207 239.582 201.218 239.477 201.218 239.477C201.641 238.8 202.085 238.134 202.551 237.478C203.037 236.801 203.714 236.209 204.581 235.701C205.956 235.405 206.95 235.257 207.563 235.257C207.881 235.257 208.156 235.278 208.388 235.32C208.621 235.342 208.843 235.405 209.055 235.511C209.287 235.595 209.509 235.733 209.721 235.923C209.953 236.114 210.218 236.357 210.514 236.653C210.852 237.013 211.117 237.256 211.307 237.383C211.519 237.51 211.624 237.626 211.624 237.732C211.624 239.678 211.022 241 209.816 241.698C209.287 241.888 208.6 242.099 207.754 242.332C206.908 242.544 205.755 242.745 204.296 242.935C204.592 243.739 204.983 244.341 205.469 244.743C205.956 245.145 206.506 245.346 207.119 245.346C208.029 245.346 209.171 244.807 210.546 243.728C210.757 243.538 211.022 243.443 211.339 243.443C211.677 243.443 211.973 243.569 212.227 243.823C212.502 244.077 212.64 244.394 212.64 244.775C212.64 245.05 212.566 245.325 212.418 245.6ZM208.832 238.81C208.431 238.155 207.955 237.827 207.405 237.827C207.172 237.827 206.918 237.859 206.643 237.922C206.368 237.986 206.083 238.081 205.787 238.208C205.512 238.313 205.247 238.451 204.994 238.62C204.761 238.789 204.57 238.99 204.422 239.223L204.105 240.175C204.824 240.111 205.459 240.058 206.009 240.016C206.559 239.974 207.035 239.91 207.436 239.826C207.838 239.741 208.156 239.625 208.388 239.477C208.621 239.329 208.769 239.107 208.832 238.81Z" fill="#CA7A49"/>
</g>
<defs>
<clipPath id="clip0_7_3533">
<rect width="301" height="301" fill="white"/>
</clipPath>
</defs>
</svg>
