<?xml version="1.0" encoding="utf-8"?>
<!-- Generator: Adobe Illustrator 27.5.0, SVG Export Plug-In . SVG Version: 6.00 Build 0)  -->
<svg version="1.1" xmlns="http://www.w3.org/2000/svg" xmlns:xlink="http://www.w3.org/1999/xlink" x="0px" y="0px"
	 viewBox="0 0 500 500" style="enable-background:new 0 0 500 500;" xml:space="preserve">
<g id="BACKGROUND">
	<g id="background_00000084516236338571540740000000410336901375219103_">
		<rect style="fill:#FFFFFF;" width="500" height="500"/>
	</g>
</g>
<g id="OBJECTS">
	<g>
		<circle style="fill:#F2E3D8;" cx="250" cy="213.736" r="122.026"/>
	</g>
	<g>
		<g>
			<g>
				<path style="fill:#CA7A49;" d="M254.998,110.846L145.408,140.9c-7.221,1.98-11.472,9.444-9.492,16.665l37.389,136.336
					c1.269,4.627,6.057,7.354,10.684,6.085l114.284-31.341c4.627-1.269,7.354-6.057,6.085-10.684l-38.676-141.03
					C264.413,112.304,259.625,109.577,254.998,110.846z M297.672,259.794c0.256,0.934-0.299,1.908-1.233,2.164l-7.836,2.149
					c-0.03-0.581-0.131-1.158-0.292-1.746l-34.642-126.32c-1.27-4.631-6.054-7.355-10.684-6.085l-93.061,25.521
					c-0.656,0.017-1.285,0.002-1.881-0.044c-4.316-0.335-5.037-6.633-0.876-7.827c0.025-0.007,0.05-0.014,0.075-0.021
					l103.639-28.422c4.224-1.159,8.588,1.327,9.747,5.551L297.672,259.794z"/>
				<path style="fill:#FFFFFF;" d="M260.628,124.716l37.044,135.079c0.256,0.934-0.299,1.908-1.233,2.164l-7.836,2.149
					c-0.03-0.581-0.131-1.158-0.292-1.746l-34.642-126.32c-1.27-4.631-6.054-7.355-10.684-6.085l-93.061,25.521
					c-0.656,0.017-1.285,0.002-1.881-0.044c-4.316-0.335-5.037-6.633-0.876-7.827c0.025-0.007,0.05-0.014,0.075-0.021
					l103.639-28.422C255.105,118.006,259.469,120.491,260.628,124.716z"/>
				<polygon style="fill:#725849;" points="188.843,203.757 178.619,197.933 172.796,208.157 156.293,147.98 172.34,143.579 				"/>
				<path style="fill:#725849;" d="M219.383,92.377c-35.437-74.104-126.133-1.589-54.953,33.745
					c12.402,6.156,16.075,9.268,21.405,26.155c1.294,4.099,2.023,8.696,5.637,7.315c5.614-2.146-3.297-21.629-6.786-26.586
					c-9.558-13.581-28.007-13.599-36.634-28.505c-6.574-11.359-1.286-25.869,9.29-32.968c14.583-9.788,40.745-5.25,54.683,20.186
					c16.533,30.173,4.126,59.531,12.893,58.668c1.874-0.185,2.768-1.733,2.822-3.439
					C228.327,128.519,227.475,109.299,219.383,92.377z"/>
				<path style="fill:#574338;" d="M303.941,255.353c-3.402-12.516-6.827-25.025-10.24-37.537c-0.96-3.519-1.92-7.038-2.88-10.557
					c-0.929-3.406-1.702-6.928-2.979-10.224c-0.013-0.035-0.041-0.055-0.072-0.067c-4.509-16.962-9.072-33.909-13.691-50.841
					c-2.314-8.482-4.636-16.963-6.983-25.436c-0.764-2.76-1.554-5.789-3.59-7.919c-2.18-2.28-5.229-2.495-8.179-1.952
					c-4.567,0.841-9.083,2.277-13.578,3.438c-4.767,1.231-9.553,2.406-14.288,3.754c-0.183-1.361-0.387-2.72-0.643-4.074
					c-0.742-3.916-1.925-7.736-3.034-11.572c-0.66-2.281-1.582-4.442-2.455-6.641c-1.752-4.411-4.252-8.48-6.772-12.503
					c-0.818-1.305-1.639-2.61-2.565-3.841c-1.692-2.252-3.77-4.13-5.644-6.206c-1.84-2.038-3.988-3.865-6.175-5.519
					c-3.786-2.864-7.991-5.173-12.461-6.777c-2.706-0.971-5.566-1.462-8.464-1.581c-5.114-0.209-10.344,0.739-15.046,2.248
					c-11.001,3.53-21.527,11.794-25.199,23.084c-1.971,6.061-1.698,12.807,0.345,18.811c4.236,12.453,16.911,18.003,27.48,24.047
					c2.713,1.552,5.462,3.136,7.908,5.101c-9.085,2.396-18.186,4.762-27.231,7.308c-3.561,1.002-6.999,2.302-9.349,5.3
					c-1.421,1.812-2.508,3.981-2.986,6.24c-0.532,2.516,0.278,4.417,0.84,6.808c1.342,5.703,2.789,11.381,4.311,17.039
					c0.381,1.414,0.766,2.827,1.155,4.239c1.167,4.232,2.37,8.455,3.605,12.667c1.016,3.465,1.916,7.058,3.118,10.492
					c2.041,8.721,4.392,17.376,6.764,26.012c2.497,9.09,5.03,18.187,7.846,27.184c0.022,0.07,0.066,0.111,0.115,0.134
					c0.14,0.495,0.279,0.988,0.402,1.473c0.39,1.547,0.784,3.094,1.187,4.638c0.936,3.587,1.905,7.165,2.872,10.744
					c0.955,3.531,1.984,7.044,2.981,10.564c1.098,3.878,1.724,8.128,3.19,11.917c1.146,2.962,4.636,5.055,7.653,5.466
					c0.542,0.074,1.09,0.1,1.636,0.073c3.169-0.159,6.34-1.487,9.356-2.38c3.543-1.049,7.092-2.08,10.637-3.122
					c13.998-4.117,28.053-8.033,42.156-11.774c8.32-2.207,16.721-4.217,24.996-6.524c3.459-0.964,6.99-1.995,10.469-3.006
					c3.501-1.035,7.166-1.765,10.734-2.669c3.356-0.85,6.972-1.93,9.909-3.826c1.747-1.128,3.151-2.682,3.636-4.749
					C305.322,260.349,304.591,257.745,303.941,255.353z M288.712,263.983c-0.109-4.37-2.053-8.908-3.362-12.941
					c-1.749-5.387-3.124-10.899-4.604-16.364c-2.92-10.789-5.503-21.691-8.755-32.386c-3.594-13.212-7.189-26.423-10.784-39.635
					c-1.822-6.699-3.626-13.403-5.469-20.095c-1.132-4.11-2.342-11.086-7.077-12.686c-2.917-0.985-6.653,0.126-9.57,0.689
					c-3.492,0.674-6.928,1.561-10.284,2.732c0.207-0.072-0.146-2.596-0.165-2.814c-0.143-1.653-0.302-3.303-0.451-4.956
					c0.007,0.076,1.775-0.608,1.907-0.652c0.888-0.298,1.77-0.618,2.674-0.865c0.771-0.211,1.542-0.421,2.314-0.632
					c0.649-0.177,1.517-0.597,2.185-0.597c1.293-0.353,2.587-0.487,3.893-0.829c1.486-0.389,2.971-0.778,4.459-1.159
					c3.173-0.812,6.635-1.999,9.919-1.13c3.387,0.896,4.573,3.703,5.415,6.792c3.542,13.001,7.007,26.023,10.51,39.034
					c1.115,4.14,2.229,8.28,3.344,12.42c2.208,8.2,4.427,16.383,6.669,24.6c1.471,5.394,2.941,10.788,4.412,16.181
					c2.941,10.788,5.882,21.576,8.824,32.364c0.401,1.471,0.802,2.942,1.203,4.413c0.214,0.785,0.428,1.569,0.642,2.354
					c0.24,0.879,0.901,1.99,0.562,2.91c-0.351,0.952-1.435,1.177-2.286,1.468c-0.732,0.25-1.473,0.48-2.213,0.706
					C291.329,263.297,290.022,263.648,288.712,263.983z M165.254,125.28c-4.7-2.727-9.483-5.354-14.023-8.341
					c-6.766-4.452-11.2-10.559-12.282-18.707c-0.812-6.117-0.294-12.237,2.679-17.736c3.08-5.698,8.055-10.24,13.547-13.574
					c4.825-2.929,10.293-5.515,15.915-6.356c3.069-0.459,6.24-0.194,9.313-0.008c6.85,0.415,12.319,3.028,17.871,6.874
					c3.979,2.757,7.571,6.062,10.704,9.75c1.694,1.994,3.256,4.099,4.682,6.292c6.269,9.642,10.312,20.9,12.375,32.186
					c1.122,6.137,1.603,12.378,1.747,18.611c0.039,1.709,0.421,12.35-2.024,14.89c-0.54,0.56-1.217,0.726-2.066,0.315
					c-2.142-1.038-1.546-5.888-1.855-7.711c-0.478-2.815,0.058-5.619-0.114-8.442c-0.18-2.956-0.408-5.908-0.545-8.866
					c-0.118-2.55-0.233-5.105-0.605-7.634c-0.545-3.714-1.479-7.414-2.544-11.01c-1.751-5.91-4.125-11.701-7.571-16.837
					c-3.327-4.959-7.355-9.749-12.006-13.518c-5.697-4.617-12.528-7.938-19.817-9.007c-6.323-0.927-12.943-0.104-18.638,2.88
					c-7.729,4.049-12.469,11.681-14.517,20.025c-0.557,2.271-0.972,4.05-0.779,6.417c0.185,2.272,0.68,4.524,1.46,6.666
					c4.244,11.646,17.603,15.476,27.226,21.222c4.863,2.903,9.469,6.854,12.588,11.612c1.963,2.996,3.022,6.044,4.312,9.344
					c1.365,3.493,2.99,7.061,2.873,10.895c-0.029,0.929-0.175,1.892-0.699,2.66c-0.524,0.767-1.509,1.281-2.4,1.017
					c-1.58-0.468-2.038-2.593-2.448-3.945c-0.564-1.859-0.981-3.761-1.652-5.586c-0.958-2.606-2.07-5.153-3.212-7.682
					c-1.57-3.477-3.674-6.811-6.513-9.317C172.925,129.735,169.075,127.498,165.254,125.28z M187.566,136.713
					c11.053-2.701,21.962-6.01,33.003-8.778c0.109,2.51,0.183,5.021,0.265,7.532c-0.026,0.002-0.05-0.003-0.078,0.004
					c-9.932,2.572-20.069,4.98-29.734,8.461C190.025,141.43,188.965,139.039,187.566,136.713z M180.894,128.412
					c-3.924-3.743-8.556-6.556-13.373-8.992c-0.98-0.496-1.831-1.129-2.809-1.605c-1.079-0.525-2.163-1.039-3.236-1.577
					c-2.145-1.073-4.248-2.246-6.147-3.719c-1.451-1.125-2.801-2.38-4.03-3.744c-2.326-2.581-4.355-5.34-5.182-8.788
					c-0.393-1.641-0.512-3.341-0.546-5.024c-0.089-4.454,1.088-8.883,3.177-12.804c2.161-4.056,5.294-7.586,9.059-10.22
					c3.97-2.777,8.624-4.515,13.447-4.991c5.597-0.552,11.228,0.606,16.34,2.884c6.79,3.025,12.645,7.874,17.649,13.308
					c8.412,9.134,12.564,21.134,14.336,33.24c0.182,1.245,0.33,2.491,0.456,3.736c-0.044-0.002-0.089-0.004-0.139,0.01
					c-6.279,1.782-12.567,3.533-18.868,5.236c-6.099,1.649-12.269,3.103-18.327,4.896
					C182.117,129.626,181.517,129.007,180.894,128.412z M201.264,126.006c6.291-1.657,12.572-3.348,18.841-5.085
					c0.197,2.11,0.338,4.221,0.436,6.333c-11.088,2.786-22.337,5.469-33.17,9.146c-0.153-0.248-0.301-0.496-0.462-0.742
					c-1.161-1.776-2.466-3.453-3.884-5.03C189.149,129.306,195.208,127.601,201.264,126.006z M156.561,148.195
					c1.167-0.182,2.331-0.531,3.465-0.835c1.365-0.366,2.725-0.746,4.088-1.12c1.363-0.373,2.725-0.746,4.088-1.12
					c1.314-0.36,2.746-0.627,4.028-1.12c0.415,2.519,1.235,5.01,1.902,7.47c0.663,2.445,1.326,4.89,1.989,7.335
					c1.353,4.988,2.705,9.975,4.058,14.963c2.649,9.768,5.301,19.535,7.951,29.302c-0.288-0.203-0.602-0.378-0.899-0.555
					c-0.459-0.272-0.918-0.545-1.376-0.82c-0.859-0.514-1.715-1.032-2.57-1.554c-0.891-0.544-1.829-1.064-2.686-1.658
					c-0.23-0.16-2.279-1.479-2.319-1.394c-0.829,1.742-1.931,3.323-2.821,5.027c-0.879,1.683-1.738,3.377-2.613,5.062
					c-2.55-9.749-5.154-19.484-7.822-29.202C162.294,168.034,159.647,158.039,156.561,148.195z M173.603,146.904
					c-0.075-0.269-1.178-3.598-1.115-3.604c-1.407,0.112-2.819,0.737-4.175,1.112c-1.358,0.376-2.716,0.752-4.074,1.128
					c-1.358,0.376-2.717,0.749-4.074,1.128c-0.355,0.099-4.173,1.258-4.193,1.199c0.536,1.569,0.963,3.162,1.399,4.77
					c0.034,0.124,0.07,0.247,0.104,0.371c-1.808,0.535-3.593,1.108-5.453,1.447c-2.073,0.379-4.86,0.921-6.555-0.708
					c-2.345-2.254,0.439-5.046,2.581-5.911c1.949-0.788,4.082-1.22,6.104-1.779c8.698-2.406,17.399-4.802,26.099-7.199
					c0.808,1.314,1.524,2.691,2.164,4.105c0.428,0.946,0.824,1.904,1.206,2.868c-3.202,0.824-6.459,1.648-9.558,2.811
					C173.912,148.062,173.764,147.481,173.603,146.904z M276.576,274.416c-1.416,0.369-2.828,0.751-4.231,1.166
					c-2.767,0.817-5.508,1.553-8.301,2.274c-2.858,0.737-5.719,1.46-8.583,2.173c-4.247,1.058-8.478,2.184-12.701,3.334
					c-4.511,1.228-9.01,2.504-13.527,3.709c-13.398,3.641-26.766,7.383-40.07,11.354c-3.225,0.963-6.605,2.262-9.918,0.927
					c-6.156-2.48-6.507-10.103-8.051-15.608c-0.973-3.472-1.924-6.951-2.92-10.416c-0.97-3.377-1.954-6.75-2.916-10.129
					c-0.469-1.648-0.939-3.295-1.407-4.944c-0.421-1.486-0.735-3.115-1.286-4.586c-2.379-8.192-4.8-16.369-7.065-24.594
					c-0.364-1.321-0.723-2.644-1.08-3.967c-1.149-4.269-2.265-8.546-3.382-12.823c-1.071-4.102-1.871-8.31-3.1-12.365
					c-0.746-2.464-1.58-4.901-2.304-7.373c-1.249-4.268-2.462-8.546-3.64-12.834c-1.185-4.313-2.333-8.637-3.463-12.965
					c-0.567-2.173-1.357-4.404-1.714-6.619c-0.291-1.803-0.933-3.499-1.243-5.312c-0.592-3.459,1.18-7.404,3.545-9.929
					c2.867-3.062,7.039-3.894,10.926-4.931c8.358-2.23,16.709-4.492,25.051-6.783c0.063-0.018,0.108-0.049,0.144-0.085
					c0.257,0.219,0.531,0.417,0.78,0.647c1.452,1.343,2.677,2.868,3.74,4.504c-5.412,1.507-10.823,3.014-16.235,4.522
					c-2.732,0.761-5.465,1.518-8.198,2.276c-3.763,1.044-10.348,1.278-11.387,6.041c-0.192,0.878-0.134,1.844,0.341,2.607
					c0.484,0.778,1.339,1.254,2.209,1.54c1.877,0.618,3.48,0.291,5.312-0.189c0.486-0.128,5.774-1.288,5.659-1.71
					c2.25,8.269,4.653,16.495,6.914,24.761c2.728,9.975,5.392,19.967,7.996,29.975c0.061,0.233,0.414,0.323,0.538,0.086
					c1.792-3.435,3.555-6.882,5.691-10.115c0.1-0.151,4.079,2.536,4.374,2.715c0.854,0.518,1.71,1.032,2.568,1.542
					c0.429,0.255,0.859,0.51,1.289,0.763c0.402,0.237,0.807,0.54,1.259,0.671c0.048,0.014,0.089,0.004,0.13-0.003
					c0.124,0.309,0.632,0.199,0.539-0.144c-2.695-9.989-5.389-19.978-8.085-29.967c-1.322-4.896-2.643-9.792-3.965-14.688
					c-0.687-2.546-1.375-5.092-2.062-7.638c-0.207-0.768-0.403-1.54-0.6-2.311c1.616-0.386,3.208-0.869,4.813-1.298
					c1.622-0.434,3.25-0.851,4.886-1.252c0.764,1.973,1.455,3.974,2.094,5.99c0.684,2.158,1.002,6.656,3.457,7.554
					c4.836,1.768,4.915-4.934,4.355-7.869c-0.403-2.111-1.175-4.132-1.943-6.14c-0.217-0.568-0.435-1.129-0.655-1.685
					c0.055,0.14,8.301-2.342,9.146-2.564c4.872-1.281,9.745-2.561,14.617-3.842c1.197-0.314,2.393-0.629,3.59-0.944
					c0.793-0.209,1.625-0.4,2.383-0.692c0.006,0.751,0.17,1.446,0.193,2.192c0.024,0.774-0.079,1.547-0.04,2.321
					c0.066,1.286,0.145,2.572,0.247,3.856c0.185,2.336,0.286,5.995,3.537,5.867c1.187-0.047,2.315-0.825,2.78-1.918
					c0.147-0.345,0.231-0.712,0.309-1.078c0.691-3.252,0.843-6.441,0.917-9.752c0.029-1.298,0.017-2.597-0.015-3.895
					c2.723-0.808,5.467-1.571,8.241-2.181c3.019-0.665,6.284-1.472,9.392-1.448c3.375,0.026,5.225,2.533,6.399,5.401
					c1.167,2.851,1.927,5.876,2.735,8.843c3.394,12.464,6.787,24.928,10.181,37.392c1.125,4.133,2.158,8.291,3.281,12.424
					c1.102,4.052,2.577,8.022,3.581,12.088c2.097,8.495,4.527,16.901,6.816,25.345c0.206,0.76,0.411,1.519,0.614,2.28
					c1.398,5.23,2.665,10.508,4.28,15.676c0.731,2.341,1.562,4.649,2.28,6.994c0.564,1.841,0.818,3.719,1.244,5.587
					c0.604,2.652,0.573,5.549-1.156,7.772c-1.664,2.138-4.099,2.879-6.628,3.524C278.909,273.817,277.741,274.112,276.576,274.416z
					 M302.35,265.894c-1.76,2.171-5.431,3.013-7.973,3.796c-1.877,0.579-3.878,0.931-5.786,1.496
					c-1.207,0.357-2.413,0.715-3.62,1.073c0.712-0.67,1.529-1.243,2.119-2.023c1.211-1.599,1.787-3.557,1.692-5.541
					c2.421-0.63,4.932-1.27,7.227-2.256c0.923-0.397,1.657-1.026,1.733-2.09c0.051-0.715-0.164-1.42-0.376-2.105
					c-1.772-5.719-3.223-11.557-4.802-17.333c-3.216-11.76-6.432-23.519-9.649-35.279c-1.664-6.083-3.264-12.16-5.084-18.193
					c-0.169-0.562-0.192-1.136-0.345-1.71c-0.411-1.542-0.83-3.081-1.245-4.622c-0.83-3.081-1.661-6.162-2.491-9.243
					c-2.295-8.515-4.591-17.031-6.885-25.546c-1.834-6.806-3.604-13.632-5.504-20.42c-0.622-2.22-1.421-4.469-3.443-5.787
					c-2.1-1.369-4.726-1.458-7.128-1.078c-3.723,0.589-7.407,1.777-11.054,2.718c-3.848,0.992-7.721,1.919-11.536,3.032
					c-0.193-2.113-0.411-4.224-0.684-6.328c8.021-1.865,15.973-4.065,23.946-6.126c3.66-0.946,8.182-2.414,11.336,0.526
					c2.471,2.302,3.211,5.989,4.072,9.107c4.416,15.972,8.782,31.958,13.1,47.956c2.141,8.562,4.588,17.058,6.86,25.587
					c0.445,1.671,1.078,3.28,1.497,4.957c0.459,1.838,1.004,3.653,1.504,5.481c0.775,2.833,1.549,5.666,2.324,8.499
					c1.576,5.764,3.152,11.528,4.728,17.292c1.603,5.862,3.206,11.724,4.809,17.586c0.745,2.726,1.576,5.444,2.212,8.197
					c0.332,1.436,0.544,2.936,0.362,4.408c-0.197,1.59-0.9,2.662-1.855,3.889C302.392,265.842,302.371,265.868,302.35,265.894z"/>
				<g>
					<path style="fill:#F8E6D5;" d="M248.722,199.688c-6.274-9.028-23.723-8.169-30.81,9.868
						c-21.719-15.096-38.452,18.759-22.586,27.392c11.469,6.241,18.056-13.108,4.669-16.363c-0.927-0.225-1.269,1.127-0.487,1.54
						c9.309,4.924,4.651,15.186-2.019,12.679c-12.087-4.545-2.798-32.634,15.05-25.041c6.663,2.835,3.49,1.767,2.908,10.972
						c-1.938,30.665,25.373,36.114,16.841,9.005c-6.676-21.211-15.991-13.245-9.29-23.858c7.887-12.491,21.232-10.591,24.567-2.294
						c2.911,7.243,0.337,18.6-6.382,17.036c-4.787-1.115-3.046-4.507,0.369-8.044c0.816-0.845,0.181-2.672-1.718-1.721
						c-9.874,4.943-2.456,16.314,5.869,12.157C252.687,219.529,253.163,206.079,248.722,199.688z M227.349,225.153
						c11.973,24.249-6.403,25.925-8.921,1.762c-0.434-4.166-0.112-8.487,0.971-12.59
						C222.734,217.406,225.452,221.313,227.349,225.153z"/>
					<path style="fill:#F8E6D5;" d="M250.783,147.767c-2.196-11.172-1.676-12.137-5.222-11.204
						c-1.698,0.447-6.128,1.697-7.689,2.485c-2.038,1.029,0.592,5.759,3.444,7.689C243.645,148.313,251.323,150.516,250.783,147.767
						z M239.106,140.219c-0.014-0.123-0.744,0.072,6.077-1.7c2.465-0.64,1.494-2.243,3.531,8.504
						C242.343,146.549,239.456,143.341,239.106,140.219z"/>
					<path style="fill:#F8E6D5;" d="M158.358,168.252c1.642-3.026,1.799-8.436-0.485-8.411c-1.748,0.02-6.256,0.951-7.969,1.336
						c-3.577,0.805-2.671,1.422,0.526,12.35C151.216,176.215,157.016,170.724,158.358,168.252z M151.923,171.913
						c-3.143-10.477-3.266-8.607-0.783-9.174c6.871-1.569,6.133-1.406,6.177-1.29C158.444,164.381,157.359,168.559,151.923,171.913z
						"/>
					<path style="fill:#F8E6D5;" d="M179.802,280.016c2.067,11.197,1.536,12.156,5.092,11.263c1.703-0.427,6.148-1.626,7.717-2.396
						c2.05-1.006-0.526-5.765-3.355-7.728C186.946,279.553,179.294,277.262,179.802,280.016z M191.392,287.699
						c0.012,0.123,0.745-0.063-6.097,1.63c-2.473,0.612-1.52,2.226-3.432-8.544C188.227,281.332,191.077,284.573,191.392,287.699z"
						/>
					<path style="fill:#F8E6D5;" d="M177.36,264.872l-2.579-9.373c-1.692-6.151-3.385-12.302-5.077-18.453
						c-3.478-12.642-7.053-25.254-10.643-37.864c-1.989-6.988-4.055-13.953-6.133-20.916c-0.162-0.543-1.004-0.353-0.863,0.204
						c6.409,25.287,13.309,50.439,20.245,75.586c0.941,3.414,1.883,6.827,2.825,10.241c0.941,3.41,1.567,7.187,3.045,10.404
						c0.388,0.844,1.689,0.549,1.593-0.41C179.459,271.135,178.201,267.927,177.36,264.872z"/>
					<path style="fill:#F8E6D5;" d="M255.732,168.682c-0.447-1.798-0.917-3.591-1.424-5.373c-1.018-3.58-2.311-7.087-3.658-10.554
						c-0.116-0.299-0.627-0.109-0.531,0.198c1.103,3.548,2.041,7.134,2.982,10.727c0.452,1.725,0.876,3.457,1.265,5.198
						c0.388,1.738,0.59,3.615,1.167,5.297c0.266,0.775,1.363,0.384,1.314-0.356C256.735,172.109,256.144,170.342,255.732,168.682z"
						/>
					<path style="fill:#F8E6D5;" d="M223.24,278.785c-0.834-0.402-1.72-0.095-2.593,0.069c-1.121,0.21-2.239,0.435-3.356,0.667
						c-2.098,0.435-4.186,0.911-6.263,1.436c-4.274,1.078-8.394,2.373-12.438,4.107c-0.241,0.103-0.113,0.436,0.135,0.377
						c4.046-0.958,8.097-2,12.155-2.947c2.23-0.52,4.47-1.001,6.721-1.421c1.082-0.202,2.166-0.39,3.251-0.569
						c0.889-0.146,1.851-0.135,2.527-0.782C223.689,279.423,223.634,278.975,223.24,278.785z"/>
					<path style="fill:#F8E6D5;" d="M216.177,145.129c-1.373,0.064-2.842,0.68-4.168,1.037c-1.41,0.379-2.823,0.75-4.228,1.149
						c-2.697,0.766-5.412,1.463-8.02,2.485c-0.301,0.118-0.294,0.671,0.088,0.618c2.86-0.398,5.649-1.15,8.459-1.823
						c1.385-0.332,2.762-0.7,4.142-1.053c0.689-0.176,1.379-0.353,2.068-0.53c0.653-0.167,1.376-0.273,1.976-0.587
						C217.157,146.077,216.976,145.092,216.177,145.129z"/>
					<path style="fill:#F8E6D5;" d="M240.186,163.695c-8.756,0.853-17.36,3.979-25.656,6.741c-4.141,1.379-8.283,2.766-12.47,4.003
						c-2.072,0.612-4.157,1.181-6.259,1.68c-1.339,0.318-2.674,0.653-4.017,0.955c-1.18,0.266-2.476,0.395-3.541,0.985
						c-0.257,0.143-0.16,0.536,0.104,0.599c1.949,0.467,4.427-0.221,6.371-0.575c2.174-0.396,4.329-0.956,6.463-1.526
						c4.358-1.163,8.642-2.56,12.923-3.977c4.173-1.381,8.344-2.774,12.57-3.989c4.555-1.31,9.146-2.234,13.805-3.078
						C241.503,165.328,241.226,163.593,240.186,163.695z"/>
					<path style="fill:#F8E6D5;" d="M244.362,175.31c-2.098-0.226-4.49,1.024-6.475,1.655c-2.156,0.684-4.316,1.354-6.48,2.01
						c-4.27,1.294-8.54,2.587-12.833,3.807c-4.55,1.293-9.07,2.663-13.643,3.876c-4.554,1.208-9.401,1.991-13.759,3.806
						c-0.272,0.113-0.122,0.47,0.134,0.463c4.657-0.14,9.369-1.566,13.893-2.588c4.689-1.06,9.406-2.092,14.051-3.328
						c4.333-1.153,8.658-2.346,12.949-3.646c2.07-0.627,4.137-1.268,6.199-1.921c2.055-0.651,4.909-1.071,6.504-2.567
						C245.411,176.398,245.044,175.383,244.362,175.31z"/>
				</g>
			</g>
			<g>
				<polygon style="fill:#CA7A49;" points="291.102,317.965 285.542,307.595 275.172,313.156 293.205,253.419 309.135,258.227 				
					"/>
				<path style="fill:#725849;" d="M360.116,184.114l-84.009-26.622c-5.536-1.754-11.449,1.313-13.203,6.849l-33.119,104.511
					c-1.124,3.547,0.844,7.34,4.391,8.464l87.607,27.762c3.547,1.124,7.34-0.844,8.465-4.391l34.259-108.11
					C365.631,189.032,363.663,185.238,360.116,184.114z M325.122,299.064c-0.227,0.716-0.998,1.116-1.715,0.889l-6.007-1.904
					c0.225-0.391,0.403-0.809,0.546-1.26l30.686-96.833c1.125-3.55-0.841-7.34-4.391-8.465l-71.338-22.607
					c-0.434-0.265-0.838-0.54-1.206-0.821c-2.669-2.037-0.484-6.441,2.728-5.464c0.019,0.006,0.038,0.012,0.058,0.018l79.447,25.176
					c3.238,1.026,5.032,4.483,4.006,7.722L325.122,299.064z"/>
				<path style="fill:#FFFFFF;" d="M357.936,195.516l-32.814,103.548c-0.227,0.716-0.998,1.116-1.715,0.889l-6.007-1.904
					c0.225-0.391,0.403-0.809,0.546-1.26l30.686-96.833c1.125-3.55-0.841-7.34-4.391-8.465l-71.338-22.607
					c-0.434-0.265-0.838-0.54-1.206-0.821c-2.669-2.037-0.484-6.441,2.728-5.464c0.019,0.006,0.038,0.012,0.058,0.018l79.447,25.176
					C357.169,188.82,358.962,192.278,357.936,195.516z"/>
				<path style="fill:#CA7A49;" d="M358.606,132.892c-3.391-12.983-19.538-15.276-30.615-12.159
					c-12.085,3.401-21.411,12.42-28.031,22.791c-7.833,12.272-12.565,26.583-12.992,41.165c-0.114,3.912,5.775,4.02,6.052,0.149
					c0.844-11.822,4.107-23.511,9.889-33.879c5.222-9.364,12.626-18.344,22.688-22.657c5.033-2.158,10.577-3.058,16.002-2.122
					c4.389,0.757,9.152,3.038,10.642,7.556c1.597,4.844-0.635,10.125-3.495,14.001c-3.377,4.574-7.784,8.281-11.664,12.408
					c-8.546,9.09-15.73,20.027-17.457,32.615c-0.56,4.08,5.783,4.847,6.342,0.776c1.599-11.659,8.659-21.616,16.591-29.952
					c4.142-4.353,8.857-8.271,12.209-13.312C358.089,145.273,360.169,138.879,358.606,132.892z"/>
				<path style="fill:#574338;" d="M297.35,297.244c-2.385,6.443-4.416,13.006-6.107,19.664c-2.043-3.219-3.828-6.582-5.322-10.092
					c-0.105-0.247-0.41-0.254-0.598-0.118c-2.934,2.126-5.968,4.101-9.08,5.956c2.014-6.771,3.833-13.639,5.192-20.57
					c0.046-0.236-0.303-0.352-0.365-0.111c-1.839,7.17-3.699,14.316-5.833,21.406c-0.088,0.293,0.234,0.636,0.53,0.463
					c3.315-1.94,6.528-4.041,9.647-6.281c1.58,3.65,3.453,7.152,5.628,10.484c0.166,0.255,0.624,0.304,0.714-0.057
					c1.735-6.951,3.851-13.797,6.341-20.515C298.273,297,297.524,296.772,297.35,297.244z"/>
				<path style="fill:#574338;" d="M356.766,127.982c-1.496-1.865-3.257-3.513-5.228-4.867c-1.945-1.336-4.085-2.38-6.329-3.108
					c-2.303-0.748-4.709-1.164-7.127-1.277c-2.56-0.12-5.132,0.099-7.644,0.597c-2.711,0.538-5.353,1.4-7.881,2.516
					c-2.757,1.217-5.378,2.735-7.836,4.478c-2.703,1.916-5.209,4.103-7.512,6.484c-2.547,2.634-4.846,5.504-6.906,8.534
					c-2.292,3.37-4.289,6.938-6.02,10.627c-0.94,2.004-1.802,4.044-2.59,6.112c-1.003,2.63-1.777,5.341-2.443,8.074
					c-0.06,0.248-0.111,0.499-0.169,0.748c-3.138-1.152-6.276-2.304-9.415-3.457c-2.403-0.882-5.36-2.212-7.811-0.749
					c-1.671,0.997-2.469,3.053-1.258,4.73c1.409,1.951,4.388,2.672,6.522,3.432c3.398,1.211,6.852,2.204,10.387,2.924
					c-0.018,0.089-0.043,0.176-0.06,0.266c-0.455,2.38-0.817,4.779-1.085,7.187c-0.267,2.406,0.606,7.873,4.237,6.819
					c1.286-0.373,2.36-1.485,2.799-2.735c0.569-1.62,0.782-4.968,1.435-9.438c4.159,1.85,8.577,3.217,12.889,4.658
					c4.315,1.441,8.653,2.809,13.011,4.114c-0.425,1.174-0.801,2.362-1.09,3.569c-0.698,2.915-0.977,9.198,3.865,8.274
					c2.621-0.501,3.067-4.007,3.511-6.191c0.271-1.334,0.772-2.631,1.219-3.919c1.197-3.448,2.708-6.782,4.613-9.899
					c1.356-2.219,2.883-4.329,4.499-6.366c3.345-4.216,7.111-8.069,10.751-12.026c2.702-2.938,5.672-5.393,7.917-8.754
					c2.092-3.134,3.571-6.72,3.911-10.458C360.278,135.045,359.188,131.002,356.766,127.982z M277.798,170.507
					c-1.525-0.543-3.103-1.073-4.555-1.792c-1.28-0.634-2.787-1.67-2.625-3.298c0.163-1.641,1.897-2.632,3.395-2.731
					c1.72-0.113,3.396,0.588,4.979,1.167c3.318,1.215,6.635,2.429,9.953,3.644c-0.214,0.924-0.431,1.848-0.629,2.776
					c-0.229,1.072-0.505,2.111-0.735,3.172C284.286,172.594,281.006,171.648,277.798,170.507z M307.642,179.887
					c-4.254-1.424-8.452-3.098-12.754-4.371c0.278-1.861,0.642-3.918,1.13-6.111c4.494,1.882,9.252,3.297,13.877,4.814
					c4.515,1.481,9.045,2.916,13.587,4.316c-0.955,1.807-1.831,3.659-2.551,5.558C316.479,182.76,312.048,181.361,307.642,179.887z
					 M323.803,177.942c-4.728-1.456-9.441-2.957-14.142-4.497c-4.508-1.477-8.985-3.172-13.545-4.476
					c1.782-7.784,5.249-17.318,12.823-26.787c21.408-26.766,48.664-16.142,42.449,0.138c-2.42,6.34-8.598,10.596-13.11,15.399
					c-4.351,4.633-8.184,9.788-11.534,15.184C325.732,174.535,324.736,176.219,323.803,177.942z M340.797,164.303
					c-5.107,5.725-9.993,11.906-12.527,19.237c-0.786,2.274-1.478,4.581-2.073,6.913c-0.361,1.416-0.712,4.224-2.082,5.101
					c-0.784,0.52-1.579,0.377-2.373-0.048c-4.331-2.321,0.84-13.112,3.434-18.121c7.714-14.896,16.554-21.057,22.897-28.223
					c3.334-3.767,6.268-8.883,5.089-14.093c-0.975-4.307-4.601-7.275-8.612-8.706c-5.27-1.879-11.186-1.437-16.444,0.244
					c-7.199,2.302-13.435,6.997-18.336,12.676c-7.035,8.152-11.476,18.282-14.289,28.593c-0.753,2.76-1.277,5.58-1.657,8.414
					c-0.229,1.702-0.332,3.417-0.48,5.127c-0.079,0.909-0.117,1.823-0.259,2.725c-0.243,1.535-1.168,2.88-2.662,3.416
					c-1.574,0.564-2.836-1.113-3.157-2.45c-0.175-0.73-0.195-1.485-0.178-2.232c0.014-0.646,0.15-1.24,0.195-1.87
					c0.109-1.512,0.052-3.032,0.381-4.523c0.301-1.36,0.419-2.778,0.679-4.15c0.261-1.38,0.559-2.754,0.896-4.117
					c0.674-2.726,1.506-5.414,2.525-8.031c1.92-4.929,4.233-9.712,6.941-14.257c2.711-4.55,5.808-8.896,9.424-12.775
					c1.738-1.864,3.426-3.59,5.527-5.027c2.198-1.504,4.48-2.883,6.833-4.13c4.447-2.357,9.122-4.071,14.204-4.181
					c4.819-0.104,9.699,0.898,13.985,3.135c1.155,0.603,2.263,1.294,3.309,2.072c2.511,1.867,4.447,4.314,5.824,7.114
					c0.81,1.648,1.187,3.474,1.2,5.305c0.029,3.897-1.314,7.699-3.568,10.876c-1.426,2.01-3.026,3.896-4.7,5.703
					C347.507,157.513,343.945,160.775,340.797,164.303z"/>
				<path style="fill:#574338;" d="M357.416,189.95c-1.267-2.173-3.477-2.7-5.939-3.706c-2.439-0.996-4.903-1.866-7.407-2.687
					c-4.358-1.43-8.8-2.584-13.2-3.873c-0.588-0.172-0.911,0.733-0.321,0.898c7.797,2.171,15.549,4.463,23.076,7.473
					c1.143,0.457,2.488,1.038,3.154,2.139c0.655,1.084,0.811,2.864,0.787,4.114c-0.058,3.115-1.353,6.044-2.296,8.962l-4.677,14.473
					c-6.047,18.711-12.143,37.408-18.119,56.142c-1.73,5.424-3.476,10.842-5.19,16.271c-0.858,2.715-1.715,5.43-2.557,8.15
					c-0.159,0.514-0.154,1.161-0.732,1.366c-0.389,0.139-1.815-0.555-2.232-0.682c-1.396-0.426-2.792-0.855-4.188-1.281
					c6.04-17.411,11.496-35.037,17.112-52.588c2.717-8.491,5.404-16.99,8.104-25.486c1.35-4.249,2.7-8.497,4.05-12.746
					c1.018-3.204,2.754-6.924,2.059-10.358c-0.679-3.357-3.754-5.023-6.711-6.117c-4.576-1.693-9.249-3.158-13.869-4.727
					c-0.452-0.154-0.706,0.546-0.251,0.7c4.023,1.367,8.048,2.731,12.07,4.101c3.056,1.04,6.927,2.275,7.846,5.803
					c0.56,2.147-0.133,4.464-0.774,6.508c-0.634,2.022-1.297,4.036-1.946,6.054c-1.307,4.065-2.613,8.131-3.92,12.196
					c-5.25,16.334-10.49,32.671-15.68,49.024c-2.906,9.158-5.812,18.328-8.526,27.545c-0.147,0.043-0.198,0.272-0.015,0.334
					c2.418,0.814,4.835,1.63,7.255,2.441c0.149,0.05,0.311-0.043,0.359-0.188c6.398-19.011,12.493-38.126,18.653-57.215
					c3.05-9.453,6.1-18.906,9.15-28.359c1.544-4.785,3.13-9.558,4.631-14.356c0.902-2.886,1.798-6.14,0.784-9.118
					C357.804,190.703,357.623,190.305,357.416,189.95z"/>
				<path style="fill:#574338;" d="M326.577,172.934c-4.984-1.607-9.966-3.218-14.951-4.819c-2.393-0.769-4.789-1.529-7.184-2.293
					c-2.353-0.751-4.83-1.831-7.294-2.102c-0.183-0.02-0.224,0.21-0.079,0.292c2.152,1.211,4.79,1.777,7.135,2.538
					c2.494,0.809,4.987,1.623,7.484,2.425c4.886,1.571,9.774,3.138,14.661,4.707C326.828,173.835,327.057,173.088,326.577,172.934z"
					/>
				<path style="fill:#574338;" d="M364.496,187.738c-0.895-1.822-2.922-2.941-4.788-3.904c-3.016-1.556-6.222-2.749-9.426-3.853
					c-5.598-1.93-11.32-3.591-17.086-4.94c-0.605-0.141-0.915,0.781-0.305,0.923c8.416,1.961,16.093,4.437,23.386,7.398
					c10.955,4.446,9.947,2.774-0.446,35.094c-29.488,91.708-25.565,86.373-32.533,86.086c-0.156-0.006-0.309-0.034-0.463-0.058
					c-4.056-0.633-8.1-2.18-12.009-3.378c-7.192-2.206-14.356-4.503-21.514-6.815c-7.965-2.573-15.92-5.176-23.87-7.795
					c-1.833-0.604-3.665-1.208-5.498-1.814c-1.876-0.62-3.706-1.443-5.596-1.939c-5.582-1.464-11.115-3.113-16.587-4.944
					c-2.194-0.734-4.935-1.46-6.392-3.39c-0.414-0.548-0.729-1.164-1.005-1.792c-0.972-2.212,0.119-4.71,0.666-6.908
					c0.819-3.294,1.861-6.533,2.899-9.762c1.618-5.035,3.297-10.051,4.952-15.074c2.379-7.22,4.729-14.45,7.029-21.697
					c3.126-9.851,6.165-19.73,9.128-29.631c12.568-33.936,5.836-36.504,35.356-27.236c0.584,0.184,0.909-0.719,0.321-0.898
					c-25.701-7.818-25.109-6.128-30.961,12.161c-3.205,10.015-6.417,20.028-9.636,30.038c-2.475,7.698-4.954,15.395-7.435,23.091
					c-1.836,5.697-3.673,11.393-5.502,17.092c-1.288,4.011-2.573,8.023-3.838,12.041c-0.831,2.64-1.658,5.283-2.442,7.938
					c-0.468,1.585-0.932,3.175-1.314,4.784c-0.699,2.946-0.309,5.721,2.29,7.822c0.107,0.086,0.216,0.17,0.327,0.251
					c1.828,1.332,4.049,1.984,6.222,2.613c2.993,0.866,5.987,1.732,8.981,2.598c1.074,0.311,2.147,0.621,3.221,0.931
					c5.264,1.52,10.445,3.1,15.629,4.826c4.827,1.607,9.662,3.188,14.503,4.753c8.505,2.749,17.025,5.448,25.557,8.113
					c2.556,0.798,5.114,1.594,7.672,2.386c1.053,0.326,2.581,1.143,3.696,1.143c13.598,4.228,11.998-1.836,20.356-26.924
					c0.507-1.521,1.014-3.042,1.52-4.564c1.688-5.084,3.363-10.172,5.026-15.264c2.288-7.008,4.551-14.023,6.779-21.05
					c2.309-7.281,4.583-14.574,6.771-21.893c0.899-3.004,1.75-6.022,2.594-9.04c0.845-3.024,2.001-5.952,2.8-8.99
					c0.366-1.392,0.852-2.753,1.189-4.126C365.071,190.7,365.168,189.106,364.496,187.738z"/>
				<path style="fill:#574338;" d="M317.154,297.474c-2.418,4.385-7.518,3.226-7.731,3.305c-1.004,0.373,1.488,1.556,4.546,0.192
					C317.619,299.344,317.666,296.546,317.154,297.474z"/>
				<g>
					<path style="fill:#F8E6D5;" d="M309.778,267.496c-0.582-15.004-25.815-9.464-25.858-8.285
						c-0.761,0.143-1.521,0.293-2.279,0.452c-32.122-34.258-45.199,14.098-1.856,1.713c3.938,4.223,7.746,8.588,12.855,11.419
						C302.643,278.337,310.033,274.077,309.778,267.496z M271.662,261.472c-28.435,2.799-17.561-27.164,7.086-1.197
						C276.402,260.772,274.051,261.236,271.662,261.472z M282.524,260.606c2.07-0.567,14.109-1.193,17.089-0.637
						C315.286,262.894,307.224,287.08,282.524,260.606z"/>
					<path style="fill:#F8E6D5;" d="M325.255,214.953c-2.182-1.021-4.696-1.549-6.999-2.26l-6.943-2.141
						c-4.524-1.395-9.046-2.795-13.579-4.162c-4.5-1.357-9-2.715-13.5-4.075c-4.681-1.414-9.28-3.23-14.012-4.447
						c-0.209-0.054-0.304,0.25-0.122,0.348c4.038,2.178,8.609,3.502,12.948,4.946c4.607,1.533,9.249,2.96,13.879,4.42
						c4.629,1.46,9.267,2.886,13.905,4.317c2.314,0.714,4.628,1.428,6.943,2.142c2.297,0.708,4.671,1.701,7.045,2.082
						C325.484,216.228,325.933,215.27,325.255,214.953z"/>
					<path style="fill:#F8E6D5;" d="M319.98,224.973c-3.929-1.871-8.313-2.942-12.445-4.294c-4.403-1.44-8.802-2.894-13.215-4.307
						c-4.239-1.358-8.492-2.698-12.802-3.816c-4.537-1.178-9.145-2.347-13.835-2.676c-0.345-0.024-0.407,0.499-0.084,0.59
						c4.277,1.208,8.63,2.13,12.91,3.334c4.317,1.215,8.609,2.512,12.878,3.885c4.323,1.389,8.632,2.824,12.945,4.245
						c4.322,1.424,8.709,3.265,13.177,4.133C320.126,226.186,320.635,225.284,319.98,224.973z"/>
					<path style="fill:#F8E6D5;" d="M317.572,236.183c-1.772-1.347-4.076-1.79-6.169-2.454c-2.202-0.699-4.404-1.398-6.606-2.098
						c-4.404-1.4-8.807-2.801-13.209-4.207c-4.367-1.395-8.74-2.768-13.118-4.128c-2.131-0.662-4.252-1.343-6.402-1.943
						c-2.322-0.648-4.748-1.602-7.153-1.83c-0.353-0.034-0.63,0.485-0.278,0.693c1.98,1.169,4.349,1.812,6.501,2.606
						c2.159,0.797,4.342,1.516,6.523,2.248c4.424,1.483,8.858,2.929,13.301,4.352c4.408,1.412,8.817,2.819,13.226,4.225
						c2.109,0.672,4.218,1.344,6.327,2.016c2.157,0.687,4.376,1.685,6.663,1.639C317.708,237.292,318.014,236.519,317.572,236.183z"
						/>
					<path style="fill:#F8E6D5;" d="M268.105,178.107c-4.06,10.988-7.754,22.129-11.572,33.203
						c-3.82,11.077-7.671,22.144-11.422,33.245c-2.133,6.314-4.224,12.64-6.296,18.975c-0.122,0.371,0.446,0.518,0.579,0.16
						c8.202-22.147,16.053-44.429,23.818-66.734c2.146-6.165,4.361-12.312,6.428-18.504
						C269.964,177.481,268.447,177.18,268.105,178.107z"/>
					<path style="fill:#F8E6D5;" d="M343.434,200.451c-1.275,2.783-2.139,5.798-3.156,8.685l-2.928,8.316
						c-1.986,5.64-3.972,11.279-5.957,16.918c-4.001,11.361-7.91,22.754-11.811,34.149c-2.263,6.61-4.865,13.214-6.611,19.982
						c-0.083,0.321,0.348,0.478,0.485,0.174c2.521-5.603,4.411-11.525,6.505-17.298c2.058-5.674,4.086-11.36,6.146-17.033
						c4.108-11.318,8.099-22.676,12.105-34.03c1.114-3.157,2.227-6.313,3.341-9.47c1.151-3.264,2.517-6.527,3.385-9.878
						C345.162,200.093,343.809,199.632,343.434,200.451z"/>
					<path style="fill:#F8E6D5;" d="M285.105,176.531c-0.839-0.523-1.87-0.819-2.804-1.133c-0.937-0.315-1.886-0.588-2.849-0.813
						c-2.011-0.47-4.051-0.771-6.113-0.894c-0.439-0.026-0.723,0.367-0.508,0.766c1.199,2.223-1.153,4.362-3.358,3.581
						c-0.321-0.114-0.532,0.391-0.231,0.549c1.299,0.685,2.893,0.496,3.93-0.585c0.846-0.883,1.077-2.111,0.799-3.246
						c1.727,0.184,3.44,0.476,5.122,0.915c0.922,0.241,1.837,0.511,2.74,0.817c0.919,0.311,1.826,0.789,2.763,1.023
						C285.16,177.652,285.681,176.89,285.105,176.531z"/>
					<path style="fill:#F8E6D5;" d="M316.562,186.129c-0.816-0.253-1.734-0.219-2.584-0.316c-0.83-0.094-1.66-0.206-2.485-0.34
						c-1.535-0.249-3.056-0.583-4.553-1.001c-3.366-0.938-6.569-2.351-9.686-3.915c-0.249-0.125-0.454,0.27-0.23,0.424
						c2.864,1.977,6.052,3.393,9.362,4.455c1.635,0.524,3.3,0.951,4.986,1.277c0.839,0.162,1.682,0.294,2.532,0.395
						c0.842,0.1,1.753,0.282,2.591,0.126C317.05,187.129,317.109,186.298,316.562,186.129z"/>
					<path style="fill:#F8E6D5;" d="M344.413,199.724c-0.866,0.144-1.524,0.503-2.44,0.318c-0.792-0.16-1.546-0.584-2.029-1.243
						c-1.012-1.382-0.654-3.468,0.641-4.535c0.37-0.305,0.219-0.803-0.215-0.929c-3.419-0.991-6.845-2.04-10.318-2.829
						c-0.336-0.076-0.505,0.393-0.171,0.516c3.105,1.143,6.287,2.091,9.45,3.062c-1.204,1.468-1.452,3.658-0.362,5.29
						c0.611,0.916,1.601,1.555,2.669,1.804c1.033,0.241,2.516,0.239,3.289-0.593C345.259,200.231,344.846,199.652,344.413,199.724z"
						/>
					<path style="fill:#F8E6D5;" d="M238.957,262.925c-0.502-0.191-0.757,0.579-0.269,0.785c1.22,0.515,2.07,1.832,1.994,3.163
						c-0.038,0.666-0.318,1.293-0.737,1.805c-0.457,0.56-1.042,0.849-1.736,1.007c-0.809,0.183-0.369,1.548,0.443,1.239
						c1.669-0.635,2.961-2.184,3.02-4.006C241.728,265.179,240.564,263.537,238.957,262.925z"/>
					<path style="fill:#F8E6D5;" d="M313.513,287.836c-0.292-0.28-0.731-0.439-1.132-0.433c-0.732,0.012-1.501,0.378-2.098,0.777
						c-1.216,0.814-2.114,2.143-2.424,3.573c-0.082,0.379-0.125,0.769-0.127,1.157c-1.565-0.676-3.234-1.204-4.779-1.799
						c-2.276-0.877-4.557-1.741-6.842-2.593c-4.571-1.704-9.161-3.356-13.769-4.957c-9.178-3.188-18.423-6.179-27.732-8.961
						c-5.501-1.643-11.045-3.32-16.679-4.438c-0.426-0.085-0.535,0.505-0.144,0.642c6.08,2.128,12.35,3.754,18.514,5.622
						c5.888,1.785,11.751,3.652,17.587,5.601c5.966,1.992,11.902,4.073,17.808,6.238c2.934,1.076,5.86,2.172,8.779,3.29
						c2.895,1.108,5.908,2.712,8.941,3.344c0.496,0.104,0.842-0.666,0.396-0.942c-0.247-0.152-0.518-0.274-0.777-0.412
						c-0.036-0.203-0.073-0.405-0.083-0.611c-0.016-0.349,0.008-0.702,0.081-1.045c0.154-0.723,0.467-1.398,0.919-1.983
						c0.437-0.565,1.006-1.046,1.663-1.336c0.276-0.122,0.632-0.27,0.935-0.292c0.172-0.013,0.713,0.095,0.599,0.329
						c-0.114,0.233,0.201,0.407,0.381,0.276C313.915,288.601,313.833,288.142,313.513,287.836z"/>
				</g>
			</g>
		</g>
	</g>
</g>
<g id="TEXTS">
	<text transform="matrix(1 0 0 1 102.3032 389.6741)"><tspan x="0" y="0" style="fill:#725849; font-family:'Gaegu-Bold'; font-size:31.7267px;">bookstore</tspan><tspan x="194.357" y="0" style="font-family:'Gaegu-Bold'; font-size:31.7267px;"> </tspan><tspan x="204.922" y="0" style="fill:#CA7A49; font-family:'Gaegu-Bold'; font-size:31.7267px;">logo</tspan></text>
	
		<text transform="matrix(1 0 0 1 168.8447 413.3801)" style="fill:#E2B691; font-family:'Gaegu-Regular'; font-size:19.5241px; letter-spacing:1;">tagline here</text>
</g>
</svg>
